<?xml version="1.0" standalone="no"?><!DOCTYPE svg PUBLIC "-//W3C//DTD SVG 1.1//EN" "http://www.w3.org/Graphics/SVG/1.1/DTD/svg11.dtd"><svg t="1533191813678" class="icon" style="" viewBox="0 0 1024 1024" version="1.1" xmlns="http://www.w3.org/2000/svg" p-id="1377" xmlns:xlink="http://www.w3.org/1999/xlink" width="200" height="200"><defs><style type="text/css"></style></defs><path d="M512 171.2l105 195.2 16 29.6 33 6 218 39.6-153.2 160.2-23.2 24.2 4.6 33.4L742 879l-199.6-96.2L512 768l-30.2 14.6-199.6 96.2L312 659.2l4.6-33.4-23.2-24.2-153.2-160.2L358 402l33-6 16-29.6L512 171.2M512 24l-166.4 309.4L0 396l242.8 253.8-47.2 348L512 845.4l316.4 152.4-47.2-348L1024 396l-345.6-62.6L512 24z" p-id="1378" fill="#5c5c5c"></path></svg>