<?xml version="1.0" standalone="no"?><!DOCTYPE svg PUBLIC "-//W3C//DTD SVG 1.1//EN" "http://www.w3.org/Graphics/SVG/1.1/DTD/svg11.dtd"><svg t="1533210445015" class="icon" style="" viewBox="0 0 1024 1024" version="1.1" xmlns="http://www.w3.org/2000/svg" p-id="2216" xmlns:xlink="http://www.w3.org/1999/xlink" width="200" height="200"><defs><style type="text/css"></style></defs><path d="M511.999488 339.532997c-122.898051 0-222.928279 100.048647-222.928279 222.946698 0 122.861212 100.029204 222.935442 222.928279 222.935442 122.898051 0 222.938512-100.07423 222.938512-222.935442C734.938 439.58062 634.896516 339.532997 511.999488 339.532997zM511.999488 744.888118c-101.017718 0-182.40433-81.429591-182.40433-182.409446 0-100.991112 81.386612-182.415586 182.40433-182.415586 101.016695 0 182.415586 81.424474 182.415586 182.415586C694.415075 663.458527 613.016183 744.888118 511.999488 744.888118z" p-id="2217" fill="#ffffff"></path><path d="M511.999488 420.606477c-0.924045-0.062422-1.889023-0.062422-2.850931 0-11.178597 0.787946-19.618826 10.496052-18.817578 21.686928 0.775666 11.197016 10.502192 19.631106 21.668509 18.829857 56.229652 0 101.367689 45.138036 101.367689 101.354386-0.187265 11.17962 8.727779 20.418029 19.955494 20.587897 11.166317 0.176009 20.380166-8.759501 20.570501-19.962657 0-0.193405 0-0.405229 0-0.62524C653.892149 484.355383 590.147336 420.606477 511.999488 420.606477z" p-id="2218" fill="#ffffff"></path><path d="M836.281129 248.311389 707.070302 248.311389l-55.405891-110.526279c-3.463891-6.782473-10.389628-11.07115-18.041912-11.07115L390.388756 126.71396c-0.638543-0.042979-1.237177-0.042979-1.913583 0-6.91448 0.663102-13.016455 4.863774-16.154935 11.07115l-55.390541 110.526279L187.716824 248.311389c-67.057255 0-121.623012 54.597479-121.623012 121.610732l0 385.119241c0 67.01223 54.565756 121.573893 121.623012 121.573893l648.564305 0c67.056232 0 121.624035-54.56064 121.624035-121.573893L957.905164 369.922121C957.905164 302.909891 903.338385 248.311389 836.281129 248.311389zM917.34233 755.041362c0 45.26288-35.759435 81.048921-81.061201 81.048921L187.716824 836.090283c-45.313022 0-81.047898-35.786041-81.047898-81.048921L106.668926 369.922121c0-45.249577 35.734876-81.061201 81.047898-81.061201l141.878334 0c7.677866-0.067538 14.667048-4.482081 18.055215-11.414981l55.053873-110.201891 218.58946 0 55.05285 110.201891c3.38919 6.932899 10.377348 11.347442 18.067494 11.414981l141.867078 0c45.301765 0 81.061201 35.811624 81.061201 81.061201L917.34233 755.041362z" p-id="2219" fill="#ffffff"></path><path d="M182.664761 145.231709l38.411845 0 0 38.411845-38.411845 0 0-38.411845Z" p-id="2220" fill="#ffffff"></path></svg>