<?xml version="1.0" standalone="no"?><!DOCTYPE svg PUBLIC "-//W3C//DTD SVG 1.1//EN" "http://www.w3.org/Graphics/SVG/1.1/DTD/svg11.dtd"><svg class="icon" width="200px" height="200.00px" viewBox="0 0 1024 1024" version="1.1" xmlns="http://www.w3.org/2000/svg"><path fill="#cccccc" d="M692.524005 125.502365c-67.141166 0-131.468241 23.717168-180.524516 65.896826-49.056276-42.179658-113.437585-65.896826-180.524516-65.896826-145.924487 0-264.61368 107.859543-264.61368 240.411465 0 236.403175 415.087786 516.232394 432.794054 528.036231 4.547573 3.032056 9.854439 4.547573 15.052834 4.547573 5.360078 0 10.721179-1.569752 15.268752-4.656043 17.435091-11.859096 427.161776-292.662503 427.161776-527.927761C957.137685 233.361909 838.449515 125.502365 692.524005 125.502365zM514.598686 838.123592c-74.18049-52.252061-393.320017-287.896966-393.320017-472.210785 0-102.553701 94.269014-186.048323 210.196303-186.048323 61.619406 0 120.205733 24.691355 160.707169 67.73673 10.288321 10.937097 29.348422 10.937097 39.634696 0 40.501436-43.045375 99.088786-67.73673 160.707169-67.73673 115.927289 0 210.196303 83.494623 210.196303 186.048323C902.720308 549.306674 588.021929 785.547143 514.598686 838.123592z" /></svg>