<?xml version="1.0" standalone="no"?><!DOCTYPE svg PUBLIC "-//W3C//DTD SVG 1.1//EN" "http://www.w3.org/Graphics/SVG/1.1/DTD/svg11.dtd"><svg class="icon" width="200px" height="200.00px" viewBox="0 0 1024 1024" version="1.1" xmlns="http://www.w3.org/2000/svg"><path fill="#cccccc" d="M843.2 992.768 95.424 992.768c-17.664 0-32-14.336-32-32L63.424 213.056c0-17.664 14.336-32 32-32l291.264 0c17.664 0 32 14.336 32 32s-14.336 32-32 32L127.424 245.056l0 683.712 683.776 0L811.2 570.816c0-17.664 14.336-32 32-32s32 14.336 32 32l0 389.952C875.2 978.432 860.864 992.768 843.2 992.768zM348.032 678.656c-8.384 0-16.512-3.328-22.656-9.344-8.384-8.384-11.456-20.736-8-32.064l62.784-203.712c1.536-4.992 4.288-9.472 8-13.184l395.328-395.456c12.48-12.48 32.768-12.48 45.248 0l141.184 141.056c6.016 6.016 9.344 14.144 9.344 22.656s-3.392 16.64-9.344 22.656L574.464 606.592C570.752 610.24 566.208 612.992 561.216 614.528l-203.776 62.656C354.368 678.208 351.232 678.656 348.032 678.656zM439.104 459.904 396.48 598.272l138.368-42.56 367.296-367.168-95.936-95.808L439.104 459.904zM551.872 615.936c-11.52 0-22.656-6.272-28.352-17.152L479.616 515.136 396.032 471.232c-15.68-8.192-21.696-27.584-13.44-43.2 8.256-15.68 27.584-21.504 43.2-13.44l92.416 48.576c5.76 3.008 10.432 7.744 13.44 13.44l48.448 92.48c8.256 15.68 2.176 35.008-13.44 43.2C561.92 614.72 556.864 615.936 551.872 615.936zM868.288 299.584c-8.192 0-16.384-3.136-22.656-9.344l-140.992-141.056c-12.48-12.48-12.48-32.768 0-45.248s32.768-12.48 45.248 0l140.992 141.056c12.48 12.48 12.48 32.768 0 45.248C884.672 296.448 876.48 299.584 868.288 299.584z" /></svg>