<?xml version="1.0" standalone="no"?><!DOCTYPE svg PUBLIC "-//W3C//DTD SVG 1.1//EN" "http://www.w3.org/Graphics/SVG/1.1/DTD/svg11.dtd"><svg class="icon" width="200px" height="200.00px" viewBox="0 0 1024 1024" version="1.1" xmlns="http://www.w3.org/2000/svg"><path fill="#cccccc" d="M920.832 875.392H92.48V93.12H298.88V1.088H92.48C41.664 1.024 0.448 42.24 0.448 93.056v782.272c0 50.816 41.216 92.032 92.032 92.032h828.352c50.816 0 92.032-41.216 92.032-92.032V684.8h-92.032v190.592zM1023.552 44.544a43.328 43.328 0 0 1-42.624 43.392h-426.24A43.328 43.328 0 0 1 512 44.544c0-23.552 19.072-43.456 42.624-43.456h426.24c23.616 0 42.688 19.84 42.688 43.456zM1023.552 471.68a42.496 42.496 0 0 1-84.928 0V45.312a42.496 42.496 0 0 1 84.928 0v426.24zM400.896 679.04a42.688 42.688 0 0 1-60.352-60.352L908.16 51.136a42.624 42.624 0 1 1 60.288 60.288L400.896 679.04z" /></svg>