<?xml version="1.0" standalone="no"?><!DOCTYPE svg PUBLIC "-//W3C//DTD SVG 1.1//EN" "http://www.w3.org/Graphics/SVG/1.1/DTD/svg11.dtd"><svg t="1533279712380" class="icon" style="" viewBox="0 0 1122 1024" version="1.1" xmlns="http://www.w3.org/2000/svg" p-id="17306" xmlns:xlink="http://www.w3.org/1999/xlink" width="219.140625" height="200"><defs><style type="text/css"></style></defs><path d="M575.558621 914.537931c-3.531034 0-5.296552 0-8.827587-1.765517L241.875862 713.268966c-5.296552-3.531034-7.062069-8.827586-7.062069-14.124138V194.206897c0-8.827586 7.062069-15.889655 15.889655-15.889656h647.944828c8.827586 0 15.889655 7.062069 15.889655 15.889656v504.937931c0 5.296552-3.531034 10.593103-7.062069 14.124138L584.386207 911.006897c-3.531034 1.765517-7.062069 3.531034-8.827586 3.531034zM268.358621 690.317241l307.2 188.910345L882.758621 690.317241V210.096552H268.358621v480.220689z" fill="#64a9f9" p-id="17307"></path><path d="M448.441379 695.613793c-3.531034 0-7.062069-1.765517-10.593103-3.531034-5.296552-3.531034-7.062069-10.593103-7.062069-15.889656l24.717241-141.241379-102.4-100.634483c-5.296552-3.531034-5.296552-10.593103-3.531034-17.655172 1.765517-5.296552 7.062069-10.593103 14.124138-10.593103l143.006896-21.186207 63.558621-128.882759c5.296552-10.593103 24.717241-10.593103 30.013793 0l63.558621 128.882759 143.006896 21.186207c7.062069 1.765517 10.593103 5.296552 14.124138 10.593103 1.765517 5.296552 0 12.358621-3.531034 17.655172l-102.4 100.634483 24.717241 141.241379c1.765517 7.062069-1.765517 12.358621-7.062069 15.889656-5.296552 3.531034-12.358621 3.531034-17.655172 1.765517l-127.117242-67.089655-127.117241 67.089655c-7.062069 1.765517-8.827586 1.765517-12.358621 1.765517z m135.944828-104.165517c3.531034 0 5.296552 0 7.062069 1.765517l105.931034 54.731035-19.420689-116.524138c-1.765517-5.296552 0-10.593103 5.296551-14.124138l84.744828-82.979311-118.289655-17.655172c-5.296552 0-10.593103-3.531034-12.358621-8.827586l-52.965517-105.931035-52.965517 105.931035c-1.765517 5.296552-7.062069 8.827586-12.358621 8.827586l-118.289655 17.655172 84.744827 82.979311c3.531034 3.531034 5.296552 8.827586 5.296552 14.124138l-19.42069 116.524138 105.931035-54.731035c1.765517-1.765517 3.531034-1.765517 7.062069-1.765517z" fill="#64a9f9" p-id="17308"></path></svg>