<?xml version="1.0" standalone="no"?><!DOCTYPE svg PUBLIC "-//W3C//DTD SVG 1.1//EN" "http://www.w3.org/Graphics/SVG/1.1/DTD/svg11.dtd"><svg t="1533279797049" class="icon" style="" viewBox="0 0 1024 1024" version="1.1" xmlns="http://www.w3.org/2000/svg" p-id="20300" xmlns:xlink="http://www.w3.org/1999/xlink" width="200" height="200"><defs><style type="text/css"></style></defs><path d="M515.247967 0c53.283447 8.275461 93.099189 50.674022 149.662326 55.791566 20.647208 1.865483 45.650622 33.001559 55.64728 56.35643 13.785954 32.194172 18.658928 69.428117 21.135324 104.944957 3.480257 49.929056 2.689243 100.314506 0.780781 150.383755-0.792037 20.752608-5.486957 43.118967-14.874749 61.434065-24.145885 47.085294-51.237862 92.71238-78.408634 138.172667-28.108118 47.022872-19.776376 70.981493 32.914578 84.303889 71.759204 18.149322 139.621665 43.542615 199.501331 89.090906 57.926178 44.059384 68.171499 104.210225 56.537554 168.43484-3.272527 18.046992-29.589863 36.524795-49.515641 46.166367-90.534788 43.777975-189.094328 57.797242-287.757221 62.240429-129.384531 5.821577-259.467978 7.053636-386.097774-28.39362-109.349259-30.603957-139.851909-142.709997-61.047256-226.386601 54.043762-57.38178 125.216613-84.271144 199.323276-105.109709 18.721349-5.265923 39.141384-11.661574 53.440013-23.816381 21.39115-18.189231 24.157141-41.362977 6.681153-67.695663-27.507439-41.465308-53.149394-84.364264-76.68846-128.205684-18.456314-34.37995-29.792477-70.900652-15.301467-111.364144 3.980653-11.11206 0.344853-25.807731-2.343367-38.307391-20.172395-93.85541 17.280537-208.949498 87.864988-254.788408C431.568294 17.099412 462.830235 10.798929 491.172691 0 499.197442 0 507.222193 0 515.247967 0zM511.850598 792.328033c-10.510357 30.705264-22.962945 58.792917-29.677867 88.196538-25.458784 111.434752-35.094216 114.962082 91.692145 106.817604 3.612264-0.234337 7.073078-2.834553 20.747492-8.642827-14.4818-61.236567-29.216357-123.528161-44.768533-189.271359 9.428724-6.55938 23.16249-16.121134 45.765232-31.840109-26.681632-16.184578-48.255954-39.546612-69.459839-39.217108-20.881545 0.328481-41.387536 24.67084-65.963209 41.089755C483.903138 774.545053 498.201767 783.643251 511.850598 792.328033z" p-id="20301" fill="#64a9f9"></path></svg>