<?xml version="1.0" standalone="no"?><!DOCTYPE svg PUBLIC "-//W3C//DTD SVG 1.1//EN" "http://www.w3.org/Graphics/SVG/1.1/DTD/svg11.dtd"><svg t="1533279629351" class="icon" style="" viewBox="0 0 1204 1024" version="1.1" xmlns="http://www.w3.org/2000/svg" p-id="15460" xmlns:xlink="http://www.w3.org/1999/xlink" width="235.15625" height="200"><defs><style type="text/css"></style></defs><path d="M187.030588 331.896471C183.416471 271.058824 231.905882 205.703529 297.562353 214.136471c159.924706 0 320.150588-3.614118 480.075294 1.807058 59.934118-3.011765 84.931765 62.945882 96.376471 110.832942 55.416471-24.395294 112.64-45.477647 171.971764-58.729412 9.035294 165.044706 6.625882 330.390588 1.204706 495.435294-59.632941-15.058824-117.76-35.84-172.875294-62.945882-8.734118 46.381176-30.72 113.242353-90.352941 108.423529-171.068235 3.614118-341.835294 3.011765-512.903529 0.602353-48.790588 2.710588-82.823529-50.296471-82.82353-94.870588-3.614118-127.397647-1.505882-255.397647-1.204706-382.795294m249.374118 361.411764c99.087059-57.825882 195.463529-119.868235 293.044706-180.103529-99.087059-56.621176-196.668235-115.952941-291.538824-179.501177-2.409412 119.868235-1.204706 239.736471-1.505882 359.604706z" p-id="15461" fill="#ed726a"></path></svg>