<?xml version="1.0" standalone="no"?><!DOCTYPE svg PUBLIC "-//W3C//DTD SVG 1.1//EN" "http://www.w3.org/Graphics/SVG/1.1/DTD/svg11.dtd"><svg t="1533279572366" class="icon" style="" viewBox="0 0 1024 1024" version="1.1" xmlns="http://www.w3.org/2000/svg" p-id="13981" xmlns:xlink="http://www.w3.org/1999/xlink" width="200" height="200"><defs><style type="text/css"></style></defs><path d="M347.129856 721.046528c32.611328-13.616128 101.277696-37.757952 158.464-56.090624 7.221248-2.331648 14.276608-4.550656 21.07392-6.660096 0.907264-0.277504 1.77664-0.556032 2.683904-0.832512 6.593536-2.033664 13.000704-3.976192 18.945024-5.7344 5.185536-1.62816 5.999616-1.888256 5.999616-23.43936 0-4.440064-0.461824-8.899584-1.258496-13.320192-0.519168-2.83136-1.350656-5.6064-2.111488-8.397824-0.42496-1.555456-0.704512-3.165184-1.183744-4.70016-0.7424-2.313216-1.649664-4.513792-2.4832-6.770688-2.295808-6.140928-4.814848-12.153856-7.443456-17.703936-1.926144-4.10624-3.963904-8.918016-5.945344-14.208-0.648192-1.701888-1.222656-3.68128-1.85344-5.455872-1.350656-3.812352-2.720768-7.568384-3.981312-11.692032-0.62976-2.071552-1.11104-4.292608-1.702912-6.421504-1.130496-4.069376-2.315264-8.102912-3.259392-12.283904-0.963584-4.144128-1.594368-8.288256-2.2784-12.432384-0.370688-2.182144-0.907264-4.402176-1.204224-6.566912l0-0.017408-0.019456 0c-3.443712-3.995648-7.369728-9.472-11.35104-16.83456-0.48128-0.924672-0.980992-2.035712-1.481728-3.01568-0.832512-1.646592-1.666048-3.201024-2.481152-5.013504-1.222656-2.68288-2.444288-5.624832-3.629056-8.71424-0.11264-0.24064-0.2048-0.444416-0.29696-0.685056-1.2032-3.144704-2.369536-6.54848-3.518464-10.136576-0.093184-0.295936-0.185344-0.519168-0.277504-0.815104-1.147904-3.606528-2.240512-7.510016-3.296256-11.598848-0.09216-0.314368-0.185344-0.591872-0.277504-0.924672-1.129472-4.458496-2.22208-9.194496-3.221504-14.226432-0.852992-4.25472-1.537024-8.17664-2.111488-11.821056-0.109568-0.81408-0.18432-1.516544-0.29696-2.294784-0.406528-2.793472-0.776192-5.45792-0.999424-7.917568-0.093184-0.832512-0.14848-1.572864-0.203776-2.386944-0.166912-2.126848-0.314368-4.180992-0.38912-6.085632-0.036864-1.05472-0.036864-2.05312-0.036864-3.052544 0-1.369088 0.018432-2.681856 0.073728-3.92192 0.055296-1.405952 0.147456-2.774016 0.277504-4.087808 0.05632-0.647168 0.130048-1.276928 0.203776-1.887232 0.203776-1.646592 0.444416-3.255296 0.777216-4.809728 0.037888-0.222208 0.073728-0.462848 0.130048-0.685056 0.352256-1.62816 0.758784-3.219456 1.2032-4.754432 0.074752-0.259072 0.14848-0.536576 0.222208-0.795648 0.408576-1.29536 0.8704-2.589696 1.333248-3.885056 0.259072-0.6656 0.482304-1.369088 0.741376-2.034688 0.036864-0.074752 0.055296-0.14848 0.073728-0.222208l0.277504-0.703488c0.370688-0.943104 0.722944-1.90464 1.01888-2.848768l0.036864-0.147456c0.111616-0.592896 0.14848-1.646592 0.222208-2.460672 0.074752-0.758784 0.167936-1.276928 0.222208-2.238464 0.518144-10.508288-0.741376-31.819776-3.296256-53.408768-0.036864-0.185344-0.036864-0.369664-0.073728-0.555008-0.407552-3.349504-0.852992-6.660096-1.314816-9.971712-0.166912-1.165312-0.29696-2.349056-0.462848-3.515392-0.556032-3.736576-1.148928-7.325696-1.777664-10.858496-0.111616-0.591872-0.186368-1.220608-0.295936-1.813504-0.519168-2.885632-0.888832-6.178816-1.092608-9.823232-0.832512-15.428608 1.833984-37.036032 10.166272-59.532288 5.332992-14.373888 12.870656-29.118464 23.667712-42.90048 0.09216-0.130048 0.221184-0.24064 0.315392-0.369664 2.97984-3.792896 6.18496-7.345152 9.46176-10.785792 1.83296-1.90464 3.852288-3.811328 5.90848-5.715968 1.536-1.461248 3.110912-2.885632 4.704256-4.273152 2.870272-2.44224 5.907456-4.88448 9.184256-7.251968 0.871424-0.647168 1.759232-1.258496 2.629632-1.887232 3.87072-2.681856 7.962624-5.30944 12.370944-7.806976 0.555008-0.295936 1.110016-0.610304 1.68448-0.924672 4.59264-2.515968 9.536512-4.921344 14.779392-7.141376 0.740352-0.314368 1.480704-0.628736 2.22208-0.924672 5.037056-2.05312 10.405888-3.903488 16-5.605376 1.220608-0.352256 2.4064-0.758784 3.648512-1.091584 5.44256-1.516544 11.240448-2.793472 17.241088-3.92192 1.462272-0.258048 2.850816-0.610304 4.350976-0.850944 7.462912-1.23904 15.296512-2.2016 23.64928-2.719744l19.36896 0.018432 17.7408 0.018432 1.222656 0c4.555776 0.277504 8.630272 0.980992 12.906496 1.498112 4.0192 0.480256 8.242176 0.795648 12.018688 1.461248 3.888128 0.684032 7.369728 1.665024 11.01824 2.5344 3.500032 0.813056 7.204864 1.47968 10.500096 2.460672 3.57376 1.05472 6.740992 2.349056 10.074112 3.552256 2.963456 1.073152 6.112256 2.016256 8.906752 3.2 3.278848 1.368064 6.185984 2.95936 9.2416 4.476928 2.407424 1.220608 5.036032 2.330624 7.315456 3.625984 3.017728 1.701888 5.685248 3.533824 8.443904 5.347328 1.926144 1.23904 4.056064 2.422784 5.85216 3.718144 2.980864 2.127872 5.572608 4.347904 8.221696 6.54848 1.277952 1.036288 2.740224 2.072576 3.944448 3.145728 3.037184 2.663424 5.70368 5.383168 8.334336 8.065024 0.57344 0.628736 1.296384 1.221632 1.852416 1.831936 3.09248 3.311616 5.888 6.586368 8.370176 9.767936 31.6672 40.421376 36.926464 89.279488 32.741376 112.236544-0.166912 0.925696-0.295936 1.887232-0.463872 2.812928-0.536576 3.070976-1.05472 6.161408-1.536 9.398272-1.814528 12.172288-3.1488 24.752128-4.037632 36.11136-0.055296 0.666624-0.109568 1.350656-0.165888 1.997824-0.203776 2.83136-0.370688 5.439488-0.518144 8.047616-0.074752 1.23904-0.166912 2.515968-0.223232 3.68128-0.111616 2.405376-0.165888 4.513792-0.239616 6.623232-0.036864 1.036288-0.073728 2.146304-0.094208 3.10784-0.055296 2.885632-0.03584 5.364736 0.037888 7.455744 0 0.036864 0 0.09216 0 0.129024 0.073728 2.220032 0.203776 3.996672 0.425984 5.12512 0.018432 0.055296 0.018432 0.202752 0.036864 0.259072l0 0.055296c0.369664 1.369088 0.851968 2.609152 1.370112 3.848192 2.741248 7.12192 4.555776 14.244864 4.926464 23.493632 0 0.259072 0 0.518144 0 0.777216 0.073728 1.96096 0.05632 4.032512-0.019456 6.21568-0.036864 1.110016-0.14848 2.368512-0.222208 3.58912-0.09216 1.536-0.202752 3.052544-0.351232 4.699136-0.223232 2.016256-0.519168 4.236288-0.833536 6.45632-0.165888 1.202176-0.277504 2.275328-0.461824 3.5328-0.575488 3.625984-1.258496 7.51104-2.112512 11.76576-7.05536 35.26144-17.59232 55.794688-26.259456 67.48672-1.241088 1.665024-2.445312 3.16416-3.593216 4.49536-1.406976 10.674176-3.999744 21.738496-6.99904 32.357376-0.500736 1.774592-0.908288 3.644416-1.444864 5.363712-0.999424 3.349504-2.130944 6.327296-3.204096 9.473024-0.887808 2.551808-1.722368 5.326848-2.6112 7.69536-1.998848 5.272576-4.037632 10.064896-5.963776 14.171136-1.406976 3.014656-2.648064 6.30784-3.702784 9.915392-0.18432 0.62976-0.277504 1.425408-0.444416 2.071552-0.815104 3.05152-1.573888 6.178816-2.149376 9.695232-0.259072 1.608704-0.369664 3.515392-0.574464 5.216256-0.350208 2.83136-0.758784 5.51424-0.96256 8.621056-0.331776 4.994048-0.498688 10.359808-0.498688 16.150528 0 14.299136 0.388096 19.165184 2.055168 21.312512 0.05632 0.109568 0.094208 0.36864 0.14848 0.462848 0.093184 0.091136 0.556032 0.367616 1.277952 0.702464 0.611328 0.333824 1.314816 0.590848 2.185216 0.868352 3.926016 1.16736 7.98208 2.387968 12.167168 3.663872 24.203264 7.417856 52.537344 16.871424 80.24064 26.548224 0.943104 0.3328 1.906688 0.664576 2.85184 0.997376 3.074048 1.093632 6.111232 2.16576 9.14944 3.257344 1.702912 0.590848 3.405824 1.18272 5.072896 1.775616 1.999872 0.72192 3.926016 1.424384 5.907456 2.127872 2.722816 0.979968 5.464064 1.96096 8.129536 2.922496 0.795648 0.295936 1.55648 0.574464 2.352128 0.8704 3.759104 1.349632 7.481344 2.702336 11.1104 4.051968 0.5376 0.203776 1.056768 0.388096 1.594368 0.591872 16.944128 6.252544 32.388096 12.153856 44.869632 17.185792 6.407168 2.571264 12.053504 4.921344 16.741376 6.975488 3.407872 1.462272 6.444032 3.089408 9.295872 4.790272 1.11104 0.703488 2.128896 1.462272 3.18464 2.2016 1.573888 1.073152 3.110912 2.164736 4.50048 3.31264 1.184768 0.97792 2.2784 2.03264 3.351552 3.10784 1.000448 0.997376 1.999872 1.978368 2.906112 3.013632 1.093632 1.23904 2.09408 2.535424 3.038208 3.8656 0.68608 0.963584 1.35168 1.905664 1.944576 2.88768 0.908288 1.4592 1.739776 2.996224 2.49856 4.566016 0.44544 0.92672 0.908288 1.869824 1.297408 2.812928 0.685056 1.667072 1.296384 3.403776 1.833984 5.180416 0.295936 0.945152 0.591872 1.8688 0.815104 2.832384 0.48128 1.886208 0.850944 3.848192 1.147904 5.844992 0.14848 0.887808 0.3328 1.775616 0.42496 2.681856 0.3328 2.847744 0.536576 5.772288 0.536576 8.825856 0 19.849216 0 77.290496 0 93.144064 0 0.538624 0 1.130496 0 1.573888 0 13.411328-7.98208 36.314112-36.77696 36.314112-0.260096 0-0.833536 0-1.148928 0-25.554944 0-199.315456 0-278.90688 0-24.128512 0-39.686144 0-39.686144 0l-6.925312 0c0 0-15.834112 0-40.31488 0-79.722496 0-252.573696 0-278.704128 0-0.388096 0-1.037312 0-1.35168 0-26.870784 0-35.518464-19.849216-36.555776-33.429504l-0.018432-4.365312-0.203776-93.165568C303.408128 759.619584 316.926976 733.978624 347.129856 721.046528z" p-id="13982" fill="#5eba8f"></path><path d="M35.314688 681.51296c33.59232-14.042112 112.925696-41.550848 162.036736-56.035328 4.185088-1.332224 4.851712-1.536 4.851712-18.963456 0-14.393344-5.94432-28.877824-11.722752-41.143296-6.24128-13.338624-13.666304-35.72224-16.3328-55.832576-7.44448-8.638464-17.59232-25.696256-24.111104-58.200064-5.722112-28.637184-3.055616-39.052288 0.758784-48.83968 0.370688-1.035264 0.796672-2.052096 1.092608-3.05152 1.444864-6.733824-0.536576-41.624576-5.443584-68.708352-3.38944-18.555904 0.869376-58.051584 26.463232-90.759168 16.166912-20.627456 47.055872-45.990912 103.53664-49.50528l30.962688 0c55.499776 3.514368 86.444032 28.877824 102.592512 49.50528 25.592832 32.707584 29.833216 72.204288 26.462208 90.759168-4.943872 27.083776-6.870016 61.974528-5.462016 68.559872 0.29696 1.147904 0.703488 2.164736 1.11104 3.2 3.777536 9.787392 6.48192 20.202496 0.740352 48.83968-6.500352 32.503808-16.648192 49.5616-24.111104 58.200064-2.666496 20.110336-10.074112 42.493952-16.352256 55.832576-4.573184 9.749504-6.740992 23.0144-6.740992 41.772032 0 17.427456 0.666624 17.631232 4.59264 18.870272 16.703488 4.939776 36.629504 11.396096 56.907776 18.315264-45.278208 15.316992-90.184704 31.55968-114.963456 41.882624-46.073856 19.738624-66.704384 61.012992-66.704384 93.257728l0.111616 55.092224c-3.130368 0-6.444032 0-10.110976 0-65.333248 0-207.90784 0-225.777664 0C6.444032 834.562048 0 816.0256 0 805.184512c0-10.843136 0-59.99616 0-76.570624C0 712.019968 11.445248 691.743744 35.314688 681.51296z" p-id="13983" fill="#5eba8f"></path></svg>