<?xml version="1.0" standalone="no"?><!DOCTYPE svg PUBLIC "-//W3C//DTD SVG 1.1//EN" "http://www.w3.org/Graphics/SVG/1.1/DTD/svg11.dtd"><svg t="1533279504137" class="icon" style="" viewBox="0 0 1024 1024" version="1.1" xmlns="http://www.w3.org/2000/svg" p-id="12321" xmlns:xlink="http://www.w3.org/1999/xlink" width="200" height="200"><defs><style type="text/css"></style></defs><path d="M660.9 810.3c-3.8-12.2-16.3-20.7-30.5-20.7h-67.2v-102c-17 2.6-34.5 4-52.3 4-17.8 0-35.3-1.4-52.3-4v102.1h-67.2c-14.2 0-26.7 8.5-30.5 20.7L337 886.9c-2.6 8.5-0.7 17.6 5.3 24.7 6 7 15.3 11.2 25.2 11.2h287c17.5 0 31.7-12.7 31.7-28.3 0-3.9-0.9-7.6-2.4-11l-22.9-73.2z m171.8-606.4c-8.8-2.1-17.7-3.1-26.5-3.1-4.1 0-8.2 0.2-12.2 0.6V126c0-14.7-13.3-26.6-29.8-26.6H257.6c-16.5 0-29.8 11.9-29.8 26.6v75.4c-4.1-0.4-8.1-0.6-12.2-0.6-8.8 0-17.7 1-26.5 3.1-69.5 16.6-106.6 94.7-82.7 174.7 20.9 69.9 81.3 118 142.6 118 3.1 0 6.2-0.3 9.3-0.5 2.3 4.4 4.7 8.7 7.2 12.9 0.5 0.8 0.9 1.6 1.4 2.3 3.7 6.1 7.7 12.1 11.8 17.8 0.5 0.6 0.9 1.3 1.4 1.9 4.4 5.9 8.9 11.7 13.7 17.2l0.4 0.4c10.1 11.6 21.3 22.4 33.2 32.3 0.2 0.2 0.4 0.4 0.6 0.5 5.9 4.9 12.1 9.4 18.3 13.8l0.9 0.6c26 17.9 55.3 31.6 86.8 40.2 0.1 0 0.2 0.1 0.3 0.1 7.9 2.1 15.9 4 24 5.4 8.4 1.5 17 2.7 25.6 3.5 0.2 0 0.4 0 0.6 0.1 8.6 0.8 17.3 1.2 26.1 1.2s17.5-0.4 26-1.2c0.2 0 0.4 0 0.7-0.1 8.6-0.8 17.1-2 25.5-3.5h0.2c8.1-1.5 16.1-3.3 24-5.4 0.1 0 0.2-0.1 0.4-0.1 31.5-8.6 60.8-22.3 86.8-40.2l0.9-0.6c6.3-4.4 12.5-9 18.4-13.8 0.2-0.2 0.4-0.3 0.6-0.5 12-9.9 23.2-20.7 33.3-32.3 0.2-0.1 0.3-0.3 0.4-0.4 4.8-5.6 9.4-11.4 13.8-17.3 0.5-0.6 0.9-1.3 1.4-1.9 4.2-5.8 8.1-11.7 11.9-17.8 0.5-0.8 0.9-1.5 1.4-2.3 2.5-4.2 4.9-8.6 7.2-12.9 3.1 0.3 6.2 0.5 9.3 0.5 61.3 0 121.8-48.1 142.6-117.9 23.9-80-13.1-158.2-82.7-174.7z m-677.4 163c-16.3-54.8 5.1-109.4 46.8-119.3 4.4-1 8.9-1.6 13.5-1.6 4 0 8.1 0.5 12.2 1.2v125.6c0 7.7 0.4 15.2 1.1 22.7 0.1 1 0.1 2 0.2 3 0.7 7.1 1.7 14.2 3 21.1 0.2 1.2 0.5 2.5 0.7 3.7 1.4 6.9 3 13.7 4.9 20.4 0.3 1 0.6 2.1 0.9 3.1 0.3 1.2 0.7 2.3 1 3.5-36-5-71.1-39.2-84.3-83.4z m510.4-51.5l-84.1 56.4 30.6 89.2c1.2 3.5-0.2 7.2-3.5 9.4-1.7 1.1-3.6 1.6-5.6 1.6-1.9 0-3.8-0.5-5.4-1.5l-86.8-53.3-86.8 53.3c-3.3 2.1-7.8 2-11-0.1-3.3-2.1-4.6-5.9-3.4-9.4l30.5-89.2-84.1-56.3c-3.2-2.2-4.6-6-3.3-9.4 1.2-3.4 4.8-5.8 8.9-5.9l105.6-1.9 34.7-88.1c1.3-3.4 4.9-5.7 9-5.7 4 0 7.6 2.3 9 5.7l34.7 88.1 105.6 1.9c4.1 0.1 7.7 2.5 8.9 5.9 1 3.3-0.3 7.1-3.5 9.3z m200.8 51.5c-13.2 44.2-48.3 78.4-84.2 83.6 0.4-1.1 0.7-2.3 1-3.5 0.3-1 0.6-2.1 0.9-3.1 1.9-6.7 3.5-13.5 4.8-20.5 0.3-1.2 0.5-2.4 0.7-3.7 1.3-7 2.3-14 3-21.1 0.1-1 0.2-2 0.2-3 0.6-7.5 1.1-15.1 1.1-22.8V247.3c4.1-0.8 8.2-1.2 12.2-1.2 4.6 0 9.1 0.5 13.4 1.6 41.8 9.8 63.3 64.4 46.9 119.2z" p-id="12322" fill="#ed726a"></path></svg>