<?xml version="1.0" standalone="no"?><!DOCTYPE svg PUBLIC "-//W3C//DTD SVG 1.1//EN" "http://www.w3.org/Graphics/SVG/1.1/DTD/svg11.dtd"><svg t="1533279538227" class="icon" style="" viewBox="0 0 1024 1024" version="1.1" xmlns="http://www.w3.org/2000/svg" p-id="13149" xmlns:xlink="http://www.w3.org/1999/xlink" width="200" height="200"><defs><style type="text/css"></style></defs><path d="M513.930098 229.11936c-216.047351 0-391.201175 178.019084-391.201175 397.474228s175.153824 397.406412 391.201175 397.406412 391.218129-177.917359 391.21813-397.406412S730.096129 229.11936 513.930098 229.11936z m201.195473 361.972137l-77.141603 76.293893 18.191855 107.86261c6.13742 36.214168-14.224572 52.032435-46.861404 34.620474l-95.350412-50.862596-95.316504 50.862596c-32.009527 17.191557-53.066641 2.475313-46.912267-34.501794l18.208809-107.862611-77.141603-76.293893c-25.906015-25.634748-18.649618-50.591328 17.920588-55.948855l106.591046-15.75045 47.675206-98.113946c16.004763-32.958962 41.639511-33.603221 57.94945 0l47.69216 98.113946 106.574092 15.75045c35.756405 5.272756 44.301321 29.856343 17.886679 55.948855z m186.835267-546.45077A27.82184 27.82184 0 0 0 879.666067 0.000322H637.74661c-13.054733 0-23.515473 9.273947-26.584184 21.548786l-74.598473 149.366489s159.640733 9.765618 253.973893 102.013412z m-414.614923 126.342686l-74.598473-149.366488c-3.06871-12.291794-13.563359-21.56574-26.584183-21.56574H144.294664A28.160924 28.160924 0 0 0 116.354145 28.432513a27.82184 27.82184 0 0 0 5.662702 16.259076L233.338114 272.996826c94.299252-92.247794 253.956939-102.013412 253.956939-102.013413z m0 0" fill="#f19e59" p-id="13150"></path><path d="M122.745878 626.593588c0 212.486969 164.150549 386.01319 370.618778 396.880832l47.69216-249.955748-27.126718-14.461931-95.316503 50.862595c-31.975618 17.140695-53.032733 2.42445-46.878359-34.552656l18.208809-107.862611-77.141603-76.293893c-25.906015-25.634748-18.649618-50.591328 17.920588-55.948855l106.591046-15.75045 47.675206-98.113946c16.004763-32.958962 41.639511-33.603221 57.94945 0l46.895313 96.469389 50.981275-267.232076a385.250251 385.250251 0 0 0-126.868267-21.514878c-216.064305 0-391.201175 178.019084-391.201175 397.474228zM233.338114 272.996826c94.299252-92.247794 253.956939-102.013412 253.956939-102.013413l-74.598474-149.366488c-3.06871-12.291794-13.563359-21.56574-26.584183-21.56574H144.294664A28.160924 28.160924 0 0 0 116.354145 28.432513a27.82184 27.82184 0 0 0 5.662702 16.259076zM611.162426 21.599971l-74.598473 149.366488a522.748801 522.748801 0 0 1 114.932512 23.295069L688.541388 0.034231h-50.862595c-13.088641 0-23.532427 9.273947-26.618092 21.56574z m0 0" fill="#f19e59" p-id="13151"></path></svg>