<?xml version="1.0" standalone="no"?><!DOCTYPE svg PUBLIC "-//W3C//DTD SVG 1.1//EN" "http://www.w3.org/Graphics/SVG/1.1/DTD/svg11.dtd"><svg t="1533279456839" class="icon" style="" viewBox="0 0 1024 1024" version="1.1" xmlns="http://www.w3.org/2000/svg" p-id="10697" xmlns:xlink="http://www.w3.org/1999/xlink" width="200" height="200"><defs><style type="text/css"></style></defs><path d="M948.032 57.984H76.032q-30.016 0-51.008 21.504t-20.992 51.52v617.024q0 30.016 20.992 51.52t51.008 21.504h336q-25.984 14.016-51.008 32t-36.992 28.992l-12.032 11.008q-22.016 0-38.016 11.008t-16 25.984 16 25.472 38.016 10.496h436.032q22.976 0 38.528-10.496t15.488-25.472-15.488-25.984-38.528-11.008q-41.024-41.024-97.024-72h297.024q30.016 0 51.008-21.504t20.992-51.52V131.008q0-30.016-20.992-51.52t-51.008-21.504z m0 472q0 30.016-21.504 51.52t-51.52 21.504H148.992q-30.016 0-51.52-21.504t-21.504-51.52V203.008q0-30.016 21.504-51.008t51.52-20.992h726.016q30.016 0 51.52 20.992t21.504 51.008v326.976z" fill="#ed726a" p-id="10698"></path></svg>