<?xml version="1.0" standalone="no"?><!DOCTYPE svg PUBLIC "-//W3C//DTD SVG 1.1//EN" "http://www.w3.org/Graphics/SVG/1.1/DTD/svg11.dtd"><svg t="1533279432431" class="icon" style="" viewBox="0 0 1024 1024" version="1.1" xmlns="http://www.w3.org/2000/svg" p-id="9932" xmlns:xlink="http://www.w3.org/1999/xlink" width="200" height="200"><defs><style type="text/css"></style></defs><path d="M198.164269 534.50148l0 354.340237c0.191358 13.473873 8.861832 21.929452 15.909341 26.004257 7.416923 4.252861 15.486716 6.057973 24.004717 6.096858l160.613024 0.038886c5.533017 0 10.992355-2.269693 14.859429-6.136767 3.958148-3.959172 6.16235-9.353019 6.16235-14.872732L419.71313 729.482243l159.983691 0.026606 0 170.464393c0 5.519714 2.243087 10.913561 6.16235 14.872732 3.932566 3.867074 9.336646 6.096858 14.899338 6.096858l160.547533 0c8.594749-0.038886 16.627702-1.843998 24.044626-6.096858 7.096628-4.074805 15.717983-12.55392 15.934924-26.004257l0-354.340237L499.711116 258.598686 198.164269 534.50148z" p-id="9933" fill="#ee7744"></path><path d="M778.200828 308.339554 778.200828 108.285239c0-12.144598-9.874905-21.982664-22.071691-21.982664l-53.122895 0c-12.170181 0-21.929452 9.838066-21.929452 21.982664l0 111.254873L537.846668 88.493473c-21.61018-19.791765-54.647621-19.791765-76.283384 0L80.872912 436.799274c-23.01825 21.058618-24.605398 56.825217-3.546779 79.856769 11.131525 12.183484 26.41358 18.36937 41.695634 18.36937 13.694907 0 27.336602-4.892427 38.187741-14.820544l342.502631-313.357847 342.53947 313.357847c23.034623 21.098527 58.824757 19.498076 79.885422-3.549849 21.058618-23.031553 19.419282-58.798151-3.575432-79.856769L778.200828 308.339554z" p-id="9934" fill="#ee7744"></path><path d="M198.164269 534.50148l0 354.340237c0.191358 13.473873 8.861832 21.929452 15.909341 26.004257 7.416923 4.252861 15.486716 6.057973 24.004717 6.096858l160.613024 0.038886c5.533017 0 10.992355-2.269693 14.859429-6.136767 3.958148-3.959172 6.16235-9.353019 6.16235-14.872732L419.71313 729.482243l159.983691 0.026606 0 170.464393c0 5.519714 2.243087 10.913561 6.16235 14.872732 3.932566 3.867074 9.336646 6.096858 14.899338 6.096858l160.547533 0c8.594749-0.038886 16.627702-1.843998 24.044626-6.096858 7.096628-4.074805 15.717983-12.55392 15.934924-26.004257l0-354.340237L499.711116 258.598686 198.164269 534.50148z" p-id="9935" fill="#ee7744"></path><path d="M778.200828 308.339554 778.200828 108.285239c0-12.144598-9.874905-21.982664-22.071691-21.982664l-53.122895 0c-12.170181 0-21.929452 9.838066-21.929452 21.982664l0 111.254873L537.846668 88.493473c-21.61018-19.791765-54.647621-19.791765-76.283384 0L80.872912 436.799274c-23.01825 21.058618-24.605398 56.825217-3.546779 79.856769 11.131525 12.183484 26.41358 18.36937 41.695634 18.36937 13.694907 0 27.336602-4.892427 38.187741-14.820544l342.502631-313.357847 342.53947 313.357847c23.034623 21.098527 58.824757 19.498076 79.885422-3.549849 21.058618-23.031553 19.419282-58.798151-3.575432-79.856769L778.200828 308.339554z" p-id="9936" fill="#ee7744"></path></svg>