<?xml version="1.0" standalone="no"?><!DOCTYPE svg PUBLIC "-//W3C//DTD SVG 1.1//EN" "http://www.w3.org/Graphics/SVG/1.1/DTD/svg11.dtd"><svg t="1533279747939" class="icon" style="" viewBox="0 0 1297 1024" version="1.1" xmlns="http://www.w3.org/2000/svg" p-id="18916" xmlns:xlink="http://www.w3.org/1999/xlink" width="253.3203125" height="200"><defs><style type="text/css"></style></defs><path d="M1250.099883 188.416V314.026667h-312.5248a187.938133 187.938133 0 0 0-187.528534 188.416c0 104.0384 83.968 188.416 187.528534 188.416h312.5248v125.610666c0 104.0384-83.968 188.416-187.528534 188.416H187.529216A187.938133 187.938133 0 0 1 0.000683 816.469333v-628.053333C0.000683 84.3776 83.968683 0 187.529216 0h875.042133a187.938133 187.938133 0 0 1 187.528534 188.416z m-405.504 314.094933c0-52.0192 41.984-94.208 93.7984-94.208 51.746133 0 93.730133 42.1888 93.730133 94.208 0 52.0192-41.984 94.208-93.730133 94.208a94.0032 94.0032 0 0 1-93.7984-94.208z" p-id="18917" fill="#ed726a"></path></svg>