<?xml version="1.0" standalone="no"?><!DOCTYPE svg PUBLIC "-//W3C//DTD SVG 1.1//EN" "http://www.w3.org/Graphics/SVG/1.1/DTD/svg11.dtd"><svg t="1533279843805" class="icon" style="" viewBox="0 0 1024 1024" version="1.1" xmlns="http://www.w3.org/2000/svg" p-id="21941" xmlns:xlink="http://www.w3.org/1999/xlink" width="200" height="200"><defs><style type="text/css"></style></defs><path d="M535.2448 275.8656 489.8816 275.8656 474.4704 580.352 483.2256 616.5504 695.7568 807.3216 730.0608 771.584 550.4 576.256Z" p-id="21942" fill="#5eba8f"></path><path d="M511.8976 146.3808c-238.2336 0-431.4112 193.024-431.4112 431.36 0 238.1824 193.1776 431.4624 431.4112 431.4624 238.3872 0 431.5136-193.2288 431.5136-431.4624C943.4112 339.4048 750.2848 146.3808 511.8976 146.3808zM511.8976 922.9312c-190.5152 0-345.0368-154.5728-345.0368-345.1904 0-190.6176 154.5728-345.088 345.0368-345.088 190.6176 0 345.1904 154.5216 345.1904 345.088C857.088 768.4096 702.5152 922.9312 511.8976 922.9312z" p-id="21943" fill="#5eba8f"></path><path d="M722.1248 14.848 698.368 98.0992c107.264 45.8752 193.8432 130.5088 243.2 235.7248L1024 306.432C965.0176 174.2848 856.6784 69.2736 722.1248 14.848z" p-id="21944" fill="#5eba8f"></path><path d="M301.8752 14.848l23.7056 83.2512C218.3168 144.0256 131.7888 228.608 82.4832 333.9776L0 306.432C58.9824 174.2848 167.3216 69.2736 301.8752 14.848z" p-id="21945" fill="#5eba8f"></path></svg>