<?xml version="1.0" standalone="no"?><!DOCTYPE svg PUBLIC "-//W3C//DTD SVG 1.1//EN" "http://www.w3.org/Graphics/SVG/1.1/DTD/svg11.dtd"><svg t="1533279667503" class="icon" style="" viewBox="0 0 1024 1024" version="1.1" xmlns="http://www.w3.org/2000/svg" p-id="16258" xmlns:xlink="http://www.w3.org/1999/xlink" width="200" height="200"><defs><style type="text/css"></style></defs><path d="M512 25.856C243.51232 25.856 25.856 243.51232 25.856 512s217.65632 486.144 486.144 486.144c268.4928 0 486.144-217.65632 486.144-486.144S780.4928 25.856 512 25.856z m152.76032 569.7792c11.4944 1.46432 8.09984 12.46208 8.09984 12.46208-9.78944 34.17088-47.95392 41.49248-47.95392 41.49248h-73.70752v66.80064a39.05024 39.05024 0 0 1-78.08512 0v-66.80064H399.09376s-38.15936-7.32672-47.95392-41.49248c0 0-3.39456-10.99264 8.09984-12.46208h113.87392v-54.9376H399.09376s-38.15936-7.3216-47.95392-41.48224c0 0-3.39456-11.00288 8.09984-12.47232h113.87392V427.48416a38.8096 38.8096 0 0 1-5.5296-3.92192l-103.168-88.22784a37.9392 37.9392 0 0 1 49.31072-57.6512l98.5088 84.24448 98.51392-84.24448a37.92384 37.92384 0 0 1 53.47328 4.1728 37.92384 37.92384 0 0 1-4.16768 53.4784l-103.16288 88.22784c-1.80224 1.54112-3.70176 2.8672-5.6832 4.01408v59.16672h113.5616c11.4944 1.46432 8.09984 12.47232 8.09984 12.47232-9.78944 34.16064-47.95392 41.48224-47.95392 41.48224h-73.70752v54.9376h113.55136z" fill="#f19e59" p-id="16259"></path></svg>