<?xml version="1.0" standalone="no"?><!DOCTYPE svg PUBLIC "-//W3C//DTD SVG 1.1//EN" "http://www.w3.org/Graphics/SVG/1.1/DTD/svg11.dtd"><svg t="1533279480098" class="icon" style="" viewBox="0 0 1024 1024" version="1.1" xmlns="http://www.w3.org/2000/svg" p-id="11474" xmlns:xlink="http://www.w3.org/1999/xlink" width="200" height="200"><defs><style type="text/css"></style></defs><path d="M881.706667 194.986667C801.28 108.8 658.773333 132.906667 597.333333 192c-23.68 23.04-85.333333 32-85.333333 32s-61.653333-8.96-85.333333-32c-61.226667-59.946667-203.946667-84.053333-284.373334 2.133333S0 481.493333 0 672.64c0 230.613333 193.28 262.613333 298.666667 149.333333a1222.186667 1222.186667 0 0 0 106.666666-128h213.333334a1247.146667 1247.146667 0 0 0 106.666666 128c105.386667 113.28 298.666667 81.28 298.666667-149.333333 0-191.146667-64-393.6-142.293333-477.653333zM403.2 480.64H341.333333v61.866667a42.666667 42.666667 0 1 1-85.333333 0v-61.866667H194.133333a42.666667 42.666667 0 1 1 0-85.333333H256v-61.866667a42.666667 42.666667 0 1 1 85.333333 0v61.866667h61.866667a42.666667 42.666667 0 1 1 0 85.333333z m268.8 62.506667A52.48 52.48 0 1 1 725.333333 490.666667a53.333333 53.333333 0 0 1-53.333333 52.48z m106.666667-126.506667A53.333333 53.333333 0 1 1 832 362.666667a53.333333 53.333333 0 0 1-53.333333 53.973333z" fill="#5eba8f" p-id="11475"></path></svg>