<?xml version="1.0" standalone="no"?><!DOCTYPE svg PUBLIC "-//W3C//DTD SVG 1.1//EN" "http://www.w3.org/Graphics/SVG/1.1/DTD/svg11.dtd"><svg t="1533279336377" class="icon" style="" viewBox="0 0 1024 1024" version="1.1" xmlns="http://www.w3.org/2000/svg" p-id="7476" xmlns:xlink="http://www.w3.org/1999/xlink" width="200" height="200"><defs><style type="text/css"></style></defs><path d="M335.1 822.9c-147.2 0-266.4-59.7-266.4-133.3v-75C68.7 688.2 188 734 335.1 734c147.1 0 266.4-45.8 266.4-119.4v75c0 73.6-119.3 133.3-266.4 133.3z m0-133.3c-147.2 0-266.4-59.7-266.4-133.3v-75c0 73.6 119.3 119.4 266.4 119.4 147.1 0 266.4-45.8 266.4-119.4v75c0 73.6-119.3 133.3-266.4 133.3z m0-133.3c-147.2 0-266.4-59.7-266.4-133.3v-75c0 73.6 119.3 119.4 266.4 119.4 147.1 0 266.4-45.8 266.4-119.4v75c0 73.6-119.3 133.3-266.4 133.3z m0-133.3c-147.2 0-266.4-59.7-266.4-133.3v-44.4C68.7 171.7 188 112 335.1 112c147.1 0 266.4 59.7 266.4 133.3v44.4c0 73.6-119.3 133.3-266.4 133.3z m0 0" p-id="7477" fill="#ee7744"></path><path d="M759.7 466C649.5 466 560 555.5 560 665.6c0 110.2 89.5 199.7 199.7 199.7 110.2 0 199.7-89.5 199.7-199.7-0.1-110.1-89.6-199.6-199.7-199.6z m16 171.1h69.5v28.5h-71v28.5h71v28.5h-71V809h-28.5v-86.3H674v-28.5h71.7v-28.5H674v-28.5h70.2l-64.9-64.9 20.3-20.3 60.6 60.6 60.6-60.6 20.3 20.3-65.4 64.8z m0 0" p-id="7478" fill="#ee7744"></path></svg>