<?xml version="1.0" standalone="no"?><!DOCTYPE svg PUBLIC "-//W3C//DTD SVG 1.1//EN" "http://www.w3.org/Graphics/SVG/1.1/DTD/svg11.dtd"><svg t="1533279356632" class="icon" style="" viewBox="0 0 1024 1024" version="1.1" xmlns="http://www.w3.org/2000/svg" p-id="8231" xmlns:xlink="http://www.w3.org/1999/xlink" width="200" height="200"><defs><style type="text/css"></style></defs><path d="M629.7435 67.4514C713.1554 24.9912 817.1191 44.1872 880.188 120.1157c60.6214 72.9365 64.7468 175.6939 16.8053 252.3779-11.9824 0.056-24.5084-2.0696-37.3162-5.969-50.8066-15.5055-103.9498-58.1326-146.6916-110.7269-42.8367-52.7213-74.2947-114.2076-81.662-167.3475C630.3441 81.2351 629.8005 74.1898 629.7435 67.4514L629.7435 67.4514 629.7435 67.4514zM208.6038 650.8888c-0.6576 37.7484 17.9516 58.5793 53.5199 64.3674l391.4856-269.3364c-54.0656-35.0352-100.1032-92.6782-123.971-153.367L208.6038 650.8888 208.6038 650.8888 208.6038 650.8888zM221.3956 736.3519c-32.5343 34.7704-42.405 70.77-34.7009 97.6678 3.146 10.9606 9.437 20.4391 18.3293 27.4994 9.437 7.5379 22.1739 12.4725 37.735 13.8286 53.0452 4.5979 132.3737-30.4224 225.0546-136.7733 93.2276-106.9365 177.1691-157.6301 245.9423-170.0037 41.6355-7.4789 78.1962-1.2432 108.5079 15.0868 30.3107 16.3149 53.8557 42.6121 69.5277 75.3119 24.4534 51.0864 29.5572 118.052 10.8901 186.0539l-54.3864-15.6164c14.8056-54.1753 11.3817-106.3909-7.1574-145.0477-10.4154-21.7552-25.7116-39.0485-45.1742-49.5184-19.5296-10.4589-43.8151-14.3183-72.4489-9.1588-57.3225 10.304-129.6624 55.3085-213.3941 151.3934C403.5566 899.3104 306.2616 939.0575 238.103 933.1005c-26.7879-2.3354-49.6754-11.6031-67.6259-25.7655-18.4972-14.6361-31.458-34.3797-37.9598-57.2652-12.9597-45.3802 0.2668-102.6464 48.1513-153.7857L221.3956 736.3519 221.3956 736.3519 221.3956 736.3519zM865.4803 409.7373c-63.2797-21.4185-126.5714-71.9572-176.2477-133.0668-45.2282-55.5863-80.041-120.876-94.0791-181.6069C557.9492 141.9119 542.8768 202.0002 551.0566 259.6421c22.7205 69.9596 81.7199 142.4494 147.502 173.3595C753.7135 449.3305 814.5608 442.0614 865.4803 409.7373L865.4803 409.7373z" p-id="8232" fill="#5eba8f"></path></svg>