<?xml version="1.0" standalone="no"?><!DOCTYPE svg PUBLIC "-//W3C//DTD SVG 1.1//EN" "http://www.w3.org/Graphics/SVG/1.1/DTD/svg11.dtd"><svg t="1533279399562" class="icon" style="" viewBox="0 0 1024 1024" version="1.1" xmlns="http://www.w3.org/2000/svg" p-id="9064" xmlns:xlink="http://www.w3.org/1999/xlink" width="200" height="200"><defs><style type="text/css"></style></defs><path d="M609.109333 241.777778H881.777778a85.333333 85.333333 0 0 1 85.333333 85.333333v512a85.333333 85.333333 0 0 1-85.333333 85.333333H142.222222a85.333333 85.333333 0 0 1-85.333333-85.333333v-512a85.333333 85.333333 0 0 1 85.333333-85.333333h244.224L278.556444 133.888a28.444444 28.444444 0 1 1 40.220445-40.220444l142.222222 142.222222c1.792 1.792 3.328 3.783111 4.551111 5.888h64.483556c1.194667-2.104889 2.730667-4.096 4.522666-5.888l142.222223-142.222222a28.444444 28.444444 0 0 1 40.220444 40.220444L609.109333 241.777778z m219.477334 455.111111h28.444444a28.444444 28.444444 0 1 0 0-56.888889h-28.444444a28.444444 28.444444 0 0 0 0 56.888889z m0 113.777778h28.444444a28.444444 28.444444 0 1 0 0-56.888889h-28.444444a28.444444 28.444444 0 0 0 0 56.888889zM227.555556 355.555556a56.888889 56.888889 0 0 0-56.888889 56.888888v341.333334a56.888889 56.888889 0 0 0 56.888889 56.888889h483.555555a56.888889 56.888889 0 0 0 56.888889-56.888889v-341.333334a56.888889 56.888889 0 0 0-56.888889-56.888888H227.555556z m0 56.888888h483.555555v341.333334H227.555556v-341.333334z" p-id="9065" fill="#ed726a"></path></svg>