<?xml version="1.0" standalone="no"?><!DOCTYPE svg PUBLIC "-//W3C//DTD SVG 1.1//EN" "http://www.w3.org/Graphics/SVG/1.1/DTD/svg11.dtd"><svg t="1533279772878" class="icon" style="" viewBox="0 0 1024 1024" version="1.1" xmlns="http://www.w3.org/2000/svg" p-id="19510" xmlns:xlink="http://www.w3.org/1999/xlink" width="200" height="200"><defs><style type="text/css"></style></defs><path d="M259.721253 704.158485l251.345492 0c35.647895 0 64.649416-29.001521 64.649416-64.649416L575.71616 388.163577c0-35.647895-29.001521-64.649416-64.649416-64.649416L259.721253 323.514161c-35.647895 0-64.649416 29.001521-64.649416 64.649416l0 251.345492C195.071837 675.156964 224.073358 704.158485 259.721253 704.158485zM240.09731 388.163577c0-10.82044 8.803503-19.623943 19.623943-19.623943l251.345492 0c10.82044 0 19.623943 8.803503 19.623943 19.623943l0 251.345492c0 10.82044-8.803503 19.623943-19.623943 19.623943L259.721253 659.133012c-10.82044 0-19.623943-8.803503-19.623943-19.623943L240.09731 388.163577z" p-id="19511" fill="#f19e59"></path><path d="M427.161776 635.496685c12.43317 0 22.512736-10.079566 22.512736-22.512736l0-16.981766 25.069979 0c12.43317 0 22.512736-10.079566 22.512736-22.512736s-10.079566-22.512736-22.512736-22.512736l-25.069979 0L449.674513 414.68972c0-12.43317-10.079566-22.512736-22.512736-22.512736s-22.512736 10.079566-22.512736 22.512736l0 198.293205C404.64904 625.417119 414.728606 635.496685 427.161776 635.496685z" p-id="19512" fill="#f19e59"></path><path d="M294.547433 491.847008l25.069979 0 0 121.135918c0 12.43317 10.079566 22.512736 22.512736 22.512736s22.512736-10.079566 22.512736-22.512736L364.642884 414.68972c0-12.43317-10.079566-22.512736-22.512736-22.512736s-22.512736 10.079566-22.512736 22.512736l0 32.131815-25.069979 0c-12.43317 0-22.512736 10.079566-22.512736 22.512736S282.114263 491.847008 294.547433 491.847008z" p-id="19513" fill="#f19e59"></path><path d="M944.064436 377.788276l-179.078585-168.845523c-4.177136-3.938706-9.700943-6.132674-15.443737-6.132674L200.282512 202.810079c-28.843932 0-56.164161 9.255805-79.007425 26.76662-22.097274 16.939811-38.438451 40.950667-46.01501 67.609841-3.3984 11.960403 3.541663 24.409946 15.501042 27.809369 11.960403 3.399423 24.409946-3.540639 27.809369-15.501042 10.316973-36.303834 43.917232-61.658292 81.712023-61.658292l540.319999 0L906.107963 403.883607l0 291.022143c0 46.833655-38.10076 84.934414-84.934414 84.934414L200.282512 779.840164c-46.833655 0-84.934414-38.10076-84.934414-84.934414L115.348098 376.213407c0-12.43317-10.079566-22.512736-22.512736-22.512736s-22.512736 10.079566-22.512736 22.512736l0 318.691319c0 71.660086 58.299801 129.959887 129.959887 129.959887l620.891036 0c71.660086 0 129.959887-58.299801 129.959887-129.959887L951.133436 394.168338C951.133436 387.967102 948.576193 382.041136 944.064436 377.788276z" p-id="19514" fill="#f19e59"></path></svg>