<?xml version="1.0" standalone="no"?><!DOCTYPE svg PUBLIC "-//W3C//DTD SVG 1.1//EN" "http://www.w3.org/Graphics/SVG/1.1/DTD/svg11.dtd"><svg t="1533279729569" class="icon" style="" viewBox="0 0 1024 1024" version="1.1" xmlns="http://www.w3.org/2000/svg" p-id="18047" xmlns:xlink="http://www.w3.org/1999/xlink" width="200" height="200"><defs><style type="text/css"></style></defs><path d="M923.583743 1023.99936H100.416257A74.495953 74.495953 0 0 1 25.600304 949.823406V237.087852a74.495953 74.495953 0 0 1 74.815953-74.175954h56.223965c-0.512 4.319997-1.343999 8.607995-1.343999 13.087992C155.296223 237.855851 206.112191 287.99982 268.800152 287.99982h486.399696c62.687961 0 113.503929-50.143969 113.503929-111.99993 0-5.471997-0.863999-10.719993-1.631999-15.99999h1.631999v2.879998h54.879966A74.495953 74.495953 0 0 1 998.399696 237.055852v712.735554A74.527953 74.527953 0 0 1 923.583743 1023.99936z m-157.919902-500.639687l-39.007975-37.887976a18.783988 18.783988 0 0 0-26.015984 0l-233.919854 227.167858-111.29593-108.863932a18.783988 18.783988 0 0 0-26.015984 0l-39.007976 37.887976a17.471989 17.471989 0 0 0 0 25.247984l123.999923 121.279924c0.096 0.096 0.032 0.224 0.128 0.32l27.103983 26.335984 6.111996 5.983996 0.032-0.032 5.759997 5.599997a18.783988 18.783988 0 0 0 26.015983 0l286.079821-277.823827a17.439989 17.439989 0 0 0 0.032-25.215984zM706.559878 255.99984H317.440122C263.712155 255.99984 220.160182 213.023867 220.160182 159.9999V127.99992h162.143899V95.99994c0-53.023967 43.551973-95.99994 97.279939-95.99994h64.86396c53.727966 0 97.279939 42.975973 97.279939 95.99994v31.99998h162.143899v31.99998c-0.032 53.023967-43.583973 95.99994-97.31194 95.99994z" fill="#5eba8f" p-id="18048"></path></svg>