<?xml version="1.0" standalone="no"?><!DOCTYPE svg PUBLIC "-//W3C//DTD SVG 1.1//EN" "http://www.w3.org/Graphics/SVG/1.1/DTD/svg11.dtd"><svg t="1533277384604" class="icon" style="" viewBox="0 0 1024 1024" version="1.1" xmlns="http://www.w3.org/2000/svg" p-id="2755" xmlns:xlink="http://www.w3.org/1999/xlink" width="200" height="200"><defs><style type="text/css"></style></defs><path d="M487.035 170.946z m26.97 58.163c-218.45 0-395.54 177.935-395.54 397.44S295.544 1024 514.005 1024s395.529-177.947 395.529-397.44S732.443 229.11 514.005 229.11z m203.381 362.003l-77.991 76.385 18.41 107.882c6.18 36.199-14.4 52.041-47.398 34.604l-96.402-50.95-96.402 50.927c-32.364 17.097-53.706 2.345-47.398-34.605l18.41-107.882-77.991-76.385c-26.185-25.645-18.762-50.61 18.105-55.993l107.777-15.748 48.183-98.103c16.183-32.95 42.086-33.596 58.632 0l48.207 98.126 107.753 15.748c36.176 5.277 44.794 29.844 18.105 55.994zM906.297 44.666a27.756 27.756 0 0 0 5.71-16.253 28.319 28.319 0 0 0-28.26-28.39H639.184c-13.193 0-23.781 9.288-26.889 21.577l-75.388 149.346s161.424 9.756 256.806 102.019z m-419.262 126.28l-75.342-149.37C408.586 9.287 398.008 0 384.816 0H140.252a28.319 28.319 0 0 0-28.248 28.39 27.827 27.827 0 0 0 5.652 16.264l112.572 228.311c95.417-92.25 256.807-102.019 256.807-102.019z" fill="#1296db" p-id="2756"></path></svg>