<?xml version="1.0" standalone="no"?><!DOCTYPE svg PUBLIC "-//W3C//DTD SVG 1.1//EN" "http://www.w3.org/Graphics/SVG/1.1/DTD/svg11.dtd"><svg t="1533168668510" class="icon" style="" viewBox="0 0 1024 1024" version="1.1" xmlns="http://www.w3.org/2000/svg" p-id="2206" xmlns:xlink="http://www.w3.org/1999/xlink" width="200" height="200"><defs><style type="text/css"></style></defs><path d="M852.8 365c-71.6 11.8-188.4 15-266-132.2-83.2-158.2-217.6-163-296.2-148.6-38.2 7-66.8 39-66.8 70l0 393.2c22.6 8.6 46.8-0.4 53-1.6 1.6-0.4 3-0.6 4.8-1 50-11 102.8-16.2 233.6 46.6 164 78.6 307.6-66.2 363.2-167 4-7 17.4-40.4 17.4-72.4C876.4 360 852.8 365 852.8 365z" p-id="2207" fill="#ffffff"></path><path d="M176 64 144 64c-8.8 0-16 7.2-16 16l0 864c0 8.8 7.2 16 16 16l32 0c8.8 0 16-7.2 16-16L192 80C192 71.2 184.8 64 176 64z" p-id="2208" fill="#ffffff"></path></svg>