<?xml version="1.0" standalone="no"?><!DOCTYPE svg PUBLIC "-//W3C//DTD SVG 1.1//EN" "http://www.w3.org/Graphics/SVG/1.1/DTD/svg11.dtd"><svg t="1533267846720" class="icon" style="" viewBox="0 0 1033 1024" version="1.1" xmlns="http://www.w3.org/2000/svg" p-id="2305" xmlns:xlink="http://www.w3.org/1999/xlink" width="201.7578125" height="200"><defs><style type="text/css"></style></defs><path d="M421.059801 893.829312 10.366092 893.829312 10.366092 64.979944l215.915561 0 0 663.569044 194.777125 0L421.058778 893.829312z" p-id="2306" fill="#b8b8b8"></path><path d="M904.162658 65.278749l-98.747002 828.551586L510.367827 893.830335 398.364917 65.278749 602.740654 65.278749c12.927427 66.6377 24.451902 150.338007 34.5724 251.099898 10.106172 100.762915 15.166421 210.153324 15.166421 328.172251 0-114.809839 5.015224-219.184001 15.062044-313.110207 10.031471-93.925183 20.287045-182.656063 30.736025-266.161942L904.162658 65.278749z" p-id="2307" fill="#b8b8b8"></path><path d="M891.01522 766.201539l125.778658 0 0 127.627772-125.778658 0 0-127.627772Z" p-id="2308" fill="#b8b8b8"></path></svg>