<?xml version="1.0" standalone="no"?><!DOCTYPE svg PUBLIC "-//W3C//DTD SVG 1.1//EN" "http://www.w3.org/Graphics/SVG/1.1/DTD/svg11.dtd"><svg t="1533274579413" class="icon" style="" viewBox="0 0 1024 1024" version="1.1" xmlns="http://www.w3.org/2000/svg" p-id="3717" xmlns:xlink="http://www.w3.org/1999/xlink" width="200" height="200"><defs><style type="text/css"></style></defs><path d="M714.432 440.128l-221.248 221.888L369.28 545.152l-54.08 59.072L499.2 768l270.848-282.624z" p-id="3718" fill="#333333"></path><path d="M576.064 192H504V120.128l0.128-0.128H576l0.128 0.128V192h-0.064z m119.936 0h-63.936V120A56.192 56.192 0 0 0 576.064 64H504A56.192 56.192 0 0 0 448 120V192H384v128h312V192z m172.032 0H768v56h64v656H256V248h51.2V192H220.032A28.096 28.096 0 0 0 192 219.968v712.064c0 15.36 12.608 27.968 28.032 27.968H896V219.968A28.096 28.096 0 0 0 868.032 192z" p-id="3719" fill="#333333"></path></svg>