<?xml version="1.0" standalone="no"?><!DOCTYPE svg PUBLIC "-//W3C//DTD SVG 1.1//EN" "http://www.w3.org/Graphics/SVG/1.1/DTD/svg11.dtd"><svg t="1533274645418" class="icon" style="" viewBox="0 0 1072 1024" version="1.1" xmlns="http://www.w3.org/2000/svg" p-id="4894" xmlns:xlink="http://www.w3.org/1999/xlink" width="209.375" height="200"><defs><style type="text/css"></style></defs><path d="M1049.695524 134.779599c12.775595 0 23.064337 10.191219 23.064337 22.576718 0 64.804448-18.285679 128.09728-52.711518 183.246889-57.05132 90.989541-153.502184 151.844282-260.875694 165.400066a157.500652 157.500652 0 0 1-2.243043 13.068166c-16.091398 72.752623-83.333937 125.561666-159.59741 125.561666-9.167221 0-18.529489-0.828951-27.794233-2.340567a23.113099 23.113099 0 0 1-18.090632-15.164924 22.089101 22.089101 0 0 1 5.11999-22.674242 112.786071 112.786071 0 0 0 30.96375-95.426866H451.388093a155.940274 155.940274 0 0 1-59.050555 98.352574 173.933383 173.933383 0 0 1-22.723004 14.628544 23.698241 23.698241 0 0 1-24.039573-0.682666c-7.167986-4.632372-9.898648-12.775595-10.386266-21.065102a224.45062 224.45062 0 0 0-8.972174-50.614761 127.268329 127.268329 0 0 0-10.23998 9.264744s0 0.097524-0.146285 0.097524a167.448062 167.448062 0 0 0-50.32219 134.094983c79.823086-10.727599 161.401597 13.165689 221.866244 66.21854 6.436559 5.753894 12.434262 11.459026 18.285679 17.651776a22.284148 22.284148 0 0 1 2.486853 27.306615 23.40567 23.40567 0 0 1-26.380141 9.459791 235.47079 235.47079 0 0 0-168.910916 13.214451 220.305866 220.305866 0 0 0 4.632372 165.49759 22.235386 22.235386 0 0 1-6.826653 26.623949 23.40567 23.40567 0 0 1-14.335973 4.924943c-13.165689 0-27.111567-14.628544-33.596889-20.18739A266.288255 266.288255 0 0 1 172.129196 786.529976C65.633399 722.895812 0 609.232028 0 486.644833c0-193.77944 161.401597-351.47514 359.715886-351.47514h78.506517A326.99671 326.99671 0 0 0 372.540243 40.766825a22.137863 22.137863 0 0 1 0.341332-31.890225 23.40567 23.40567 0 0 1 13.409499-6.339035A380.342133 380.342133 0 0 1 431.444512 0.00195c114.492734 0 220.40339 49.054383 292.717156 135.265267h325.533856v-0.487618zM904.385325 243.81101a22.284148 22.284148 0 0 0-22.137863 22.479195c0 12.483024 9.996171 22.479195 22.137863 22.479195A22.235386 22.235386 0 0 0 926.474426 266.290205 22.284148 22.284148 0 0 0 904.385325 243.81101z m-174.66481 16.67654a23.210622 23.210622 0 0 0-32.329081 8.045699 107.714842 107.714842 0 0 0 0 111.274454 23.40567 23.40567 0 0 0 32.329081 7.80189 24.137097 24.137097 0 0 0 7.80189-32.914223 59.830743 59.830743 0 0 1 0-61.342359 24.137097 24.137097 0 0 0-7.80189-32.865461z m-89.429163 0a23.210622 23.210622 0 0 0-32.28032 8.045699 107.714842 107.714842 0 0 0 0 111.274454 23.40567 23.40567 0 0 0 32.28032 7.80189 24.137097 24.137097 0 0 0 7.80189-32.914223 59.830743 59.830743 0 0 1 0-61.342359 24.137097 24.137097 0 0 0-7.80189-32.865461z m-330.702608 22.576718a23.503193 23.503193 0 0 0-29.06204-16.383968c-89.721734 26.038808-159.694934 99.425334-182.271653 191.390111a23.893288 23.893288 0 0 0 17.066634 29.06204c1.852949 0.487618 23.015575 3.900945 28.476898-17.407967 19.163392-75.336999 75.873379-135.752884 149.601239-157.110558a23.893288 23.893288 0 0 0 16.188922-29.549658z" p-id="4895" fill="#333333"></path></svg>