<?xml version="1.0" standalone="no"?><!DOCTYPE svg PUBLIC "-//W3C//DTD SVG 1.1//EN" "http://www.w3.org/Graphics/SVG/1.1/DTD/svg11.dtd"><svg t="1533274632232" class="icon" style="" viewBox="0 0 1024 1024" version="1.1" xmlns="http://www.w3.org/2000/svg" p-id="4493" xmlns:xlink="http://www.w3.org/1999/xlink" width="200" height="200"><defs><style type="text/css"></style></defs><path d="M80.81473015873019 329.2187089947091c-8.84215873015873 11.44279365079365-13.523301587301585 25.48622222222222-13.523301587301585 40.56990476190476 0 33.28812698412698 24.96609523809524 61.37498412698412 58.25422222222222 66.05612698412698l9.362285714285713 1.5603809523809524 172.68215873015873 415.5814603174603h409.3399365079365L896.8939682539683 420.2409312169313l8.322031746031746-2.0805079365079364c30.68749206349206-6.761650793650793 52.532825396825395-33.808253968253965 52.532825396825395-64.49574603174602 0-36.929015873015864-30.16736507936508-67.09638095238095-67.61650793650793-67.09638095238095s-67.61650793650793 30.16736507936508-67.61650793650793 67.09638095238095c0 8.84215873015873 1.5603809523809524 17.164190476190477 5.201269841269841 24.96609523809524l5.201269841269841 13.003174603174603-16.123936507936506 9.362285714285713c-29.12711111111111 17.164190476190477-61.8951111111111 36.929015873015864-108.70653968253967 36.929015873015864-9.362285714285713 0-18.204444444444444-0.5201269841269841-26.52647619047619-2.0805079365079364-78.5391746031746-14.04342857142857-124.83047619047618-95.18323809523808-138.35377777777776-135.75314285714285l-5.201269841269841-11.962920634920634 9.882412698412697-6.761650793650793c17.68431746031746-12.48304761904762 28.08685714285714-32.24787301587301 28.08685714285714-54.09320634920634 0-36.929015873015864-30.16736507936508-66.57625396825397-67.61650793650793-66.57625396825397s-67.61650793650793 30.16736507936508-67.61650793650793 66.57625396825397c0 23.405714285714282 12.48304761904762 45.25104761904761 32.768 57.213968253968254l10.922666666666666 6.761650793650793-3.6408888888888886 11.962920634920634c-13.003174603174603 43.17053968253968-57.213968253968254 126.91098412698412-134.1927619047619 137.8336507936508-6.761650793650793 1.0402539682539682-14.563555555555554 1.5603809523809524-21.845333333333333 1.5603809523809524-46.811428571428564 0-78.5391746031746-18.724571428571426-109.74679365079363-36.929015873015864-2.6006349206349206-1.5603809523809524-4.681142857142857-2.6006349206349206-7.281777777777777-4.161015873015873l-10.402539682539683-6.24152380952381 2.6006349206349206-11.44279365079365c1.0402539682539682-4.681142857142857 1.5603809523809524-9.362285714285713 1.5603809523809524-14.04342857142857 0-36.929015873015864-30.16736507936508-66.57625396825397-67.61650793650793-66.57625396825397-13.523301587301585 0-26.52647619047619 4.161015873015873-37.969269841269835 11.44279365079365L80.81473015873019 329.2187089947091z m154.47771428571426 142.51479365079365c23.405714285714282 10.922666666666666 50.45231746031746 21.32520634920635 89.46184126984126 21.32520634920635 10.402539682539683 0 20.28495238095238-0.5201269841269841 29.12711111111111-2.0805079365079364 69.69701587301587-9.882412698412697 121.1895873015873-52.532825396825395 146.15568253968254-89.46184126984126l13.003174603174603-18.724571428571426 13.523301587301585 18.204444444444444c31.72774603174603 41.61015873015873 87.90146031746032 74.37815873015872 144.07517460317462 84.78069841269841 11.44279365079365 2.0805079365079364 23.405714285714282 3.120761904761905 35.88876190476191 3.120761904761905 35.88876190476191 0 60.33473015873016-8.84215873015873 81.6599365079365-18.724571428571426l37.969269841269835-17.164190476190477-145.11542857142857 348.48507936507934h-339.64292063492064l-144.5953015873016-347.4448253968254 38.489396825396824 17.68431746031746z m0 0" p-id="4494" fill="#333333"></path></svg>