<?xml version="1.0" standalone="no"?><!DOCTYPE svg PUBLIC "-//W3C//DTD SVG 1.1//EN" "http://www.w3.org/Graphics/SVG/1.1/DTD/svg11.dtd"><svg t="1533274418290" class="icon" style="" viewBox="0 0 1024 1024" version="1.1" xmlns="http://www.w3.org/2000/svg" p-id="2928" xmlns:xlink="http://www.w3.org/1999/xlink" width="200" height="200"><defs><style type="text/css"></style></defs><path d="M749.02381 301.31251 274.97312 301.31251c-14.545274 0-26.334785 11.793604-26.334785 26.335808 0 14.551414 11.789511 26.340925 26.334785 26.340925l474.05069 0c14.553461 0 26.342971-11.80179 26.342971-26.340925C775.366781 313.107137 763.577271 301.31251 749.02381 301.31251L749.02381 301.31251zM880.710015 64.287165 143.301242 64.287165c-43.640939 0-79.014588 35.372625-79.014588 79.013565l0 579.387783c0 43.639916 35.372625 79.013565 79.014588 79.013565l158.010757 0 0 131.686205c0 14.541181 11.788487 26.324552 26.335808 26.324552 2.814092 0 5.470595-0.558725 8.008394-1.366114 8.53028 1.917676 17.803481-0.363274 24.443715-7.001461L509.743098 801.703101l370.96794 0c43.639916 0 79.001285-35.372625 79.001285-79.013565L959.712323 143.30073C959.7113 99.660814 924.343791 64.287165 880.710015 64.287165L880.710015 64.287165zM907.039683 696.358845c0 29.094642-23.584138 52.67878-52.67264 52.67878L485.66368 749.037624l0 3.947915c-2.173502 1.184989-4.27435 2.582825-6.113231 4.418636l-125.559671 125.56888L353.990778 775.367293c0-14.541181-11.790534-26.329668-26.341948-26.329668L169.623747 749.037624c-29.087479 0-52.671617-23.584138-52.671617-52.67878L116.95213 169.637562c0-29.094642 23.584138-52.677756 52.671617-52.677756l684.743296 0c29.088502 0 52.67264 23.583115 52.67264 52.677756L907.039683 696.358845 907.039683 696.358845zM749.02381 485.664192 274.97312 485.664192c-14.545274 0-26.334785 11.795651-26.334785 26.335808 0 14.553461 11.789511 26.335808 26.334785 26.335808l474.05069 0c14.553461 0 26.342971-11.795651 26.342971-26.335808S763.577271 485.664192 749.02381 485.664192L749.02381 485.664192zM749.02381 485.664192" p-id="2929" fill="#333333"></path></svg>