<?xml version="1.0" standalone="no"?><!DOCTYPE svg PUBLIC "-//W3C//DTD SVG 1.1//EN" "http://www.w3.org/Graphics/SVG/1.1/DTD/svg11.dtd"><svg t="1533345476158" class="icon" style="" viewBox="0 0 1024 1024" version="1.1" xmlns="http://www.w3.org/2000/svg" p-id="2199" xmlns:xlink="http://www.w3.org/1999/xlink" width="200" height="200"><defs><style type="text/css"></style></defs><path d="M861.664751 912.403343 159.322635 912.403343c-53.495378 0-96.872305-43.376926-96.872305-96.872305L62.450331 210.06225c0-53.495378 43.376926-96.873328 96.872305-96.873328l702.342116 0c53.500495 0 96.872305 43.37795 96.872305 96.873328l0 605.468788C958.537056 869.027439 915.165246 912.403343 861.664751 912.403343L861.664751 912.403343zM885.881292 234.284931c0-26.737968-21.696138-48.439222-48.433082-48.439222L183.544293 185.845709c-26.736944 0-48.439222 21.701255-48.439222 48.439222l0 557.024449c0 26.737968 21.702278 48.439222 48.439222 48.439222l653.903917 0c26.737968 0 48.433082-21.701255 48.433082-48.439222L885.881292 234.284931 885.881292 234.284931zM650.188292 543.963992 465.011826 661.281955c-12.790304 8.111748-28.166503 8.911974-41.875736 2.181689-13.682627-6.734378-21.623483-18.96698-21.623483-33.352619L401.512606 395.483286c0-14.410198 7.940856-26.66429 21.650089-33.374108 13.70821-6.708795 29.058826-5.935176 41.874713 2.177596l185.176466 117.315916c11.428284 7.265474 17.699104 18.287505 17.699104 31.17093C667.914002 525.682627 661.642159 536.679076 650.188292 543.963992L650.188292 543.963992zM650.188292 543.963992" p-id="2200" fill="#ffffff"></path></svg>