<?xml version="1.0" standalone="no"?><!DOCTYPE svg PUBLIC "-//W3C//DTD SVG 1.1//EN" "http://www.w3.org/Graphics/SVG/1.1/DTD/svg11.dtd"><svg t="1533345950764" class="icon" style="" viewBox="0 0 1024 1024" version="1.1" xmlns="http://www.w3.org/2000/svg" p-id="3726" xmlns:xlink="http://www.w3.org/1999/xlink" width="200" height="200"><defs><style type="text/css"></style></defs><path d="M224 416h128a32 32 0 0 1 0 64h-128a32 32 0 0 1 0-64z m0 128h128a32 32 0 0 1 0 64h-128a32 32 0 0 1 0-64z m0 128h128a32 32 0 1 1 0 64h-128a32 32 0 1 1 0-64z" p-id="3727" fill="#ffffff"></path><path d="M128 320v512h768V320H128z m502.336-64L430.272 122.624a32 32 0 0 1 35.456-53.248L745.664 256H896a64 64 0 0 1 64 64v512a64 64 0 0 1-64 64H128a64 64 0 0 1-64-64V320a64 64 0 0 1 64-64h502.336z" p-id="3728" fill="#ffffff"></path><path d="M640 704a128 128 0 1 0 0-256 128 128 0 0 0 0 256z m0 64a192 192 0 1 1 0-384 192 192 0 0 1 0 384z" p-id="3729" fill="#ffffff"></path></svg>