<?xml version="1.0" standalone="no"?><!DOCTYPE svg PUBLIC "-//W3C//DTD SVG 1.1//EN" "http://www.w3.org/Graphics/SVG/1.1/DTD/svg11.dtd"><svg t="1533345970815" class="icon" style="" viewBox="0 0 1024 1024" version="1.1" xmlns="http://www.w3.org/2000/svg" p-id="4513" xmlns:xlink="http://www.w3.org/1999/xlink" width="200" height="200"><defs><style type="text/css"></style></defs><path d="M678.684444 967.111111l-341.333333 0c-62.862222 0-113.777778-50.915556-113.777778-113.777778L223.573333 170.666667c0-62.862222 50.915556-113.777778 113.777778-113.777778l341.333333 0c62.862222 0 113.777778 50.915556 113.777778 113.777778l0 682.666667C792.462222 916.195556 741.546667 967.111111 678.684444 967.111111zM508.017778 853.333333c31.402667 0 56.888889-25.486222 56.888889-56.888889 0-31.402667-25.486222-56.888889-56.888889-56.888889-31.402667 0-56.888889 25.486222-56.888889 56.888889C451.128889 827.847111 476.615111 853.333333 508.017778 853.333333zM678.684444 170.666667l-341.333333 0 0 455.111111 341.333333 0L678.684444 170.666667z" p-id="4514" fill="#ffffff"></path></svg>