<?xml version="1.0" standalone="no"?><!DOCTYPE svg PUBLIC "-//W3C//DTD SVG 1.1//EN" "http://www.w3.org/Graphics/SVG/1.1/DTD/svg11.dtd"><svg t="1533345993967" class="icon" style="" viewBox="0 0 1024 1024" version="1.1" xmlns="http://www.w3.org/2000/svg" p-id="5718" xmlns:xlink="http://www.w3.org/1999/xlink" width="200" height="200"><defs><style type="text/css"></style></defs><path d="M347.89085 430.960289l-80.142272 0 0 82.090647-82.090647 0 0 80.222089 82.090647 0 0 82.049714 80.142272 0 0-82.049714 82.130555 0 0-80.222089-82.130555 0L347.89085 430.960289zM672.915411 228.037646l-145.729036 0.557702 12.927427-82.727143L442.112792 145.868205l10.978029 82.727143L330.550926 228.595348c-168.359452 0-266.440281 147.118686-266.440281 326.217736 0 151.293775 73.460082 278.05276 197.790762 313.688375 0 0 60.375066 19.446911 127.391389 1.272993 61.050448-17.780969 97.881284-60.655452 123.775025-116.976178 31.379685 59.861366 79.027891 104.645338 161.317059 120.118751 69.167313 11.848862 124.140345-13.505595 124.140345-13.505595 107.10639-42.296315 160.315242-168.296007 160.315242-304.598346 0-171.782412-125.639488-315.040163-284.455587-326.217736M674.384879 309.453934c68.727291 0 197.076494 113.551172 204.317409 245.35915 6.441713 118.164237-55.618738 240.305041-165.139108 240.305041-95.311763-1.36816-129.739876-60.572564-161.360038-159.846568l-81.455173 0c-27.321252 85.752036-39.493479 159.133324-139.879817 161.755034-120.591519-5.088902-186.616258-113.429399-186.616258-242.213507 0-121.825626 116.137067-245.35915 204.313316-245.35915L674.384879 309.453934zM674.384879 512.413416c-22.86987 0-41.36306 18.535145-41.36306 41.402969 0 22.832008 18.49319 41.36613 41.36306 41.36613 22.870894 0 41.364083-18.534122 41.364083-41.36613C715.748962 530.948561 697.255773 512.413416 674.384879 512.413416zM797.166273 513.687432c-22.471804 0-40.727587 18.252713-40.727587 40.727587 0 22.51069 18.255783 40.72861 40.727587 40.72861 22.508643 0 40.727587-18.21792 40.727587-40.72861C837.89386 531.939121 819.674916 513.687432 797.166273 513.687432z" p-id="5719" fill="#ffffff"></path></svg>