<?xml version="1.0" standalone="no"?><!DOCTYPE svg PUBLIC "-//W3C//DTD SVG 1.1//EN" "http://www.w3.org/Graphics/SVG/1.1/DTD/svg11.dtd"><svg t="1533346009742" class="icon" style="" viewBox="0 0 1830 1024" version="1.1" xmlns="http://www.w3.org/2000/svg" p-id="6479" xmlns:xlink="http://www.w3.org/1999/xlink" width="357.421875" height="200"><defs><style type="text/css"></style></defs><path d="M926.059 42.666c-252.313 0-456.696 204.383-456.696 456.696 0 250.87 204.383 455.254 456.696 455.254 250.87 0 455.254-204.383 455.254-455.254 0-252.313-204.383-456.696-455.254-456.696zM846.871 863.084c-150.522-32.22-266.74-154.369-289.984-307.296 70.853-0.962 176.331 8.656 229.55 67.166 0 0 70.372 20.358 60.433 240.13zM754.537 499.362c0-22.121 3.687-42.961 11.061-62.517h-207.75c29.495-176.972 182.582-310.983 368.21-310.983 184.346 0 337.272 134.011 366.768 310.983h-212.559c7.374 19.557 10.9 40.396 10.9 62.517 0 91.692-73.418 167.674-165.11 170.079-95.539 0-171.522-75.822-171.522-170.079zM999.156 864.206c-10.42-220.894 60.273-241.252 60.273-241.252 54.342-59.952 163.507-68.609 234.52-67.166-23.564 154.85-142.347 278.121-294.793 308.418z" p-id="6480" fill="#ffffff"></path><path d="M926.059 374.488c-68.609 0-124.874 56.265-124.874 124.874 0 68.448 56.265 123.592 124.874 123.592 68.448 0 123.592-55.143 123.592-123.592 0-68.609-55.143-124.874-123.592-124.874zM926.059 563.002c-35.587 0-64.922-28.213-64.922-63.639 0-35.587 29.335-64.922 64.922-64.922 35.426 0 63.639 29.335 63.639 64.922 0 35.426-28.213 63.639-63.639 63.639z" p-id="6481" fill="#ffffff"></path></svg>