<?xml version="1.0" standalone="no"?><!DOCTYPE svg PUBLIC "-//W3C//DTD SVG 1.1//EN" "http://www.w3.org/Graphics/SVG/1.1/DTD/svg11.dtd"><svg t="1533346049296" class="icon" style="" viewBox="0 0 1024 1024" version="1.1" xmlns="http://www.w3.org/2000/svg" p-id="7230" xmlns:xlink="http://www.w3.org/1999/xlink" width="200" height="200"><defs><style type="text/css"></style></defs><path d="M896 960l-768 0c-35.328 0-64-28.672-64-64l0-672c0-35.328 28.672-64 64-64l64 0 0 32c0 53.024 42.976 96 96 96s96-42.976 96-96l0-32 256 0 0 32c0 53.024 43.008 96 96 96s96-42.976 96-96l0-32 64 0c35.328 0 64 28.672 64 64l0 672c0 35.328-28.672 64-64 64zM896 384l-768 0 0 512 768 0 0-512zM418.208 634.528c6.304-10.048 9.472-20.672 9.472-31.776 0-24.736-13.312-37.12-39.936-37.12-23.136 0-45.248 9.184-66.368 27.552l0-52.128c23.36-15.136 49.76-22.688 79.136-22.688 27.488 0 48.96 6.912 64.416 20.704s23.168 32.48 23.168 55.968c0 31.36-18.816 63.808-56.448 97.312l-55.328 49.12 0 1.12 109.12 0 0 49.12-176.992 0 0-46.112 77.056-73.696c15.488-14.848 26.4-27.296 32.704-37.376zM634.784 741.312c8.448-6.496 12.672-15.552 12.672-27.2 0-12-5.216-21.248-15.648-27.744s-24.768-9.76-43.04-9.76l-24.192 0 0-45.376 22.304 0c35.008 0 52.512-11.616 52.512-34.88 0-21.888-13.44-32.8-40.32-32.8-17.984 0-35.488 5.824-52.512 17.44l0-48.384c18.88-9.504 40.864-14.24 65.984-14.24 27.488 0 48.896 6.176 64.224 18.56s22.976 28.448 22.976 48.192c0 35.136-17.824 57.12-53.44 65.984l0 0.928c19.008 2.368 33.984 9.28 44.992 20.704s16.512 25.472 16.512 42.08c0 25.12-9.184 44.992-27.552 59.616s-43.744 21.952-76.128 21.952c-27.744 0-50.304-4.512-67.68-13.504l0-51.552c17.984 13.12 39.008 19.68 63.008 19.68 15.104 0.064 26.88-3.2 35.328-9.696zM735.008 256c-34.816 0-63.008-28.192-63.008-63.008l0-65.984c0-34.816 28.192-63.008 63.008-63.008s63.008 28.192 63.008 63.008l0 65.984c0 34.816-28.192 63.008-63.008 63.008zM287.008 256c-34.816 0-63.008-28.192-63.008-63.008l0-65.984c0-34.816 28.192-63.008 63.008-63.008s63.008 28.192 63.008 63.008l0 65.984c0 34.816-28.224 63.008-63.008 63.008z" p-id="7231" fill="#ffffff"></path></svg>