<?xml version="1.0" standalone="no"?><!DOCTYPE svg PUBLIC "-//W3C//DTD SVG 1.1//EN" "http://www.w3.org/Graphics/SVG/1.1/DTD/svg11.dtd"><svg t="1533346079612" class="icon" style="" viewBox="0 0 1024 1024" version="1.1" xmlns="http://www.w3.org/2000/svg" p-id="8994" xmlns:xlink="http://www.w3.org/1999/xlink" width="200" height="200"><defs><style type="text/css"></style></defs><path d="M971.9 205.402 739.394 205.402C726.615 90.427 629.528 1 511.997 1 394.472 1 297.379 90.427 284.606 205.402L52.099 205.402C23.993 205.402 1 228.397 1 256.501l0 664.295C1 977.008 46.988 1023 103.199 1023l817.597 0c56.21 0 102.204-45.992 102.204-102.203L1023 256.501C1023 228.397 1000.006 205.402 971.9 205.402L971.9 205.402zM511.997 52.099c89.427 0 163.52 66.432 176.297 153.303L335.706 205.402C348.477 118.531 422.577 52.099 511.997 52.099L511.997 52.099zM971.9 920.797c0 28.104-22.999 51.104-51.104 51.104L103.199 971.901c-28.106 0-51.1-22.999-51.1-51.104L52.099 256.501 282.05 256.501l0 109.866c-15.333 7.66-25.549 25.549-25.549 43.433 0 28.104 22.993 51.1 51.099 51.1 28.105 0 51.1-22.996 51.1-51.1 0-17.884-10.224-35.772-25.55-43.433L333.15 256.501 690.85 256.501l0 109.866c-15.333 7.66-25.549 25.549-25.549 43.433 0 28.104 22.993 51.1 51.099 51.1s51.099-22.996 51.099-51.1c0-17.884-10.222-35.772-25.549-43.433L741.95 256.501 971.9 256.501 971.9 920.797 971.9 920.797zM971.9 920.797" p-id="8995" fill="#ffffff"></path></svg>