<?xml version="1.0" standalone="no"?><!DOCTYPE svg PUBLIC "-//W3C//DTD SVG 1.1//EN" "http://www.w3.org/Graphics/SVG/1.1/DTD/svg11.dtd"><svg t="1533275825227" class="icon" style="" viewBox="0 0 1024 1024" version="1.1" xmlns="http://www.w3.org/2000/svg" p-id="1342" xmlns:xlink="http://www.w3.org/1999/xlink" width="200" height="200"><defs><style type="text/css"></style></defs><path d="M499.2 934.4H236.8c-51.2 0-89.6-38.4-89.6-89.6v-384c0-6.4 0-44.8 12.8-76.8 6.4-25.6 38.4-64 38.4-70.4l128-172.8c25.6-25.6 51.2-51.2 121.6-51.2h339.2c51.2 0 89.6 38.4 89.6 89.6v448c0 19.2-12.8 32-32 32s-32-12.8-32-32v-448c0-12.8-12.8-25.6-25.6-25.6H448c-44.8 0-51.2 12.8-64 25.6L256 352c-12.8 19.2-32 44.8-32 57.6-6.4 12.8-12.8 38.4-12.8 57.6v384c0 12.8 12.8 25.6 25.6 25.6h262.4c19.2 0 32 12.8 32 32s-12.8 25.6-32 25.6z" fill="#ff8200" p-id="1343"></path><path d="M454.4 633.6c-19.2 0-32-12.8-32-32V576c0-19.2 12.8-32 32-32s32 12.8 32 32v32c0 12.8-12.8 25.6-32 25.6zM556.8 633.6c-19.2 0-32-12.8-32-32V576c0-19.2 12.8-32 32-32s32 12.8 32 32v32c0 12.8-12.8 25.6-32 25.6zM659.2 633.6c-19.2 0-32-12.8-32-32V576c0-19.2 12.8-32 32-32s32 12.8 32 32v32c0 12.8-12.8 25.6-32 25.6z" fill="#ff8200" p-id="1344"></path><path d="M537.6 940.8c-76.8 0-140.8-57.6-140.8-128s64-128 140.8-128c19.2 0 32 12.8 32 32s-12.8 32-32 32c-38.4 0-76.8 32-76.8 64s32 64 76.8 64c19.2 0 32 12.8 32 32s-12.8 32-32 32zM793.6 940.8c-19.2 0-32-12.8-32-32s12.8-32 32-32c38.4 0 76.8-32 76.8-64s-32-64-76.8-64c-19.2 0-32-12.8-32-32s12.8-32 32-32c76.8 0 140.8 57.6 140.8 128s-64 128-140.8 128z" fill="#ff8200" p-id="1345"></path><path d="M793.6 940.8c-38.4 0-64-12.8-89.6-38.4l-19.2-19.2c-19.2-25.6-89.6-108.8-102.4-115.2-12.8-12.8-32-19.2-44.8-19.2-19.2 0-32-12.8-32-32s12.8-32 32-32c32 0 57.6 12.8 83.2 32 12.8 6.4 38.4 38.4 108.8 128l19.2 19.2c12.8 12.8 19.2 19.2 44.8 19.2 19.2 0 32 12.8 32 32s-12.8 25.6-32 25.6z" fill="#ff8200" p-id="1346"></path><path d="M537.6 940.8c-19.2 0-32-12.8-32-32s12.8-32 32-32c25.6 0 32-6.4 44.8-19.2l19.2-25.6c70.4-83.2 96-115.2 108.8-121.6 25.6-19.2 57.6-32 83.2-32 19.2 0 32 12.8 32 32s-12.8 32-32 32c-12.8 0-32 6.4-44.8 19.2-12.8 12.8-76.8 83.2-102.4 115.2l-19.2 25.6c-19.2 25.6-51.2 38.4-89.6 38.4z" fill="#ff8200" p-id="1347"></path></svg>