<?xml version="1.0" standalone="no"?><!DOCTYPE svg PUBLIC "-//W3C//DTD SVG 1.1//EN" "http://www.w3.org/Graphics/SVG/1.1/DTD/svg11.dtd"><svg t="1533179252023" class="icon" style="" viewBox="0 0 1024 1024" version="1.1" xmlns="http://www.w3.org/2000/svg" p-id="1972" xmlns:xlink="http://www.w3.org/1999/xlink" width="200" height="200"><defs><style type="text/css"></style></defs><path d="M818.1 638.2c-0.2-108-65.5-200.7-65.5-200.7 10.6 41.1 6.1 86.5-1.9 123.7-0.3 1.2-0.7 2.7-1 4.6-0.8 3.6-1.7 7.2-2.6 10.6-3.8 12.2-9.3 16.8-13.9 18.3H725c-8.6 0-12.3-10.4-13.9-20.7-0.3-6.9-0.6-13.6-1-20.3C681.2 81.1 345 62.2 345 62.2c192.2 175 84.4 387 84.4 387 17.5-166-101.9-195.1-101.9-195.1s54.4 55-43.7 177.6c-104.8 131-85.9 235.9-85.9 235.9h0.5c9.1 163.1 144.3 292.6 309.7 292.6 171.3 0 310.2-138.9 310.2-310.2 0.1-3.9 0-7.9-0.2-11.8z" p-id="1973" fill="#ffffff"></path></svg>