<?xml version="1.0" standalone="no"?><!DOCTYPE svg PUBLIC "-//W3C//DTD SVG 1.1//EN" "http://www.w3.org/Graphics/SVG/1.1/DTD/svg11.dtd"><svg t="1533191263100" class="icon" style="" viewBox="0 0 1024 1024" version="1.1" xmlns="http://www.w3.org/2000/svg" p-id="5174" xmlns:xlink="http://www.w3.org/1999/xlink" width="200" height="200"><defs><style type="text/css"></style></defs><path d="M106.307 55.217c-0.414 1.518-0.967 2.899-1.243 4.419a178.69 178.69 0 0 0 1.243-4.419z m55.65-37.696c-0.69 0-1.518-0.139-2.209-0.139 0.551 0.139 1.382 0.139 2.209 0.139z" fill="#707070" p-id="5175"></path><path d="M107.691 51.351c-0.551 1.243-0.967 2.624-1.518 3.867h0.139c0.551-1.243 0.967-2.624 1.382-3.867z m51.64-33.97zM463.257 375.71c39.906 0 72.219-32.313 72.219-72.219s-32.313-72.219-72.219-72.219-72.219 32.313-72.219 72.219 32.313 72.219 72.219 72.219z" fill="#707070" p-id="5176"></path><path d="M981.072 438.677c0-12.703-4.281-24.442-11.461-33.969-4.004-5.247-9.115-11.599-15.743-19.471-16.985-19.746-58.686-65.59-124.002-118.201l73.047-79.262c4.004-4.004 6.489-9.527 6.489-15.603 0-7.595-3.867-14.361-9.804-18.366h-0.139l-1.243-0.831C778.773 83.932 591.255 93.736 542.098 97.741c-107.292-43.36-234.19-75.257-380.145-80.089-0.69 0-1.518-0.139-2.209-0.139h-0.414c-23.06 0-42.944 13.946-51.505 33.829-0.414 1.382-0.967 2.624-1.382 4.004a54.823 54.823 0 0 0-1.382 4.419C18.343 322.816 41.128 554.106 76.478 703.788c31.069 131.181 75.808 222.178 95.28 257.941l0.139-0.139c8.56 15.327 24.028 26.237 42.115 28.447 0.274 0 0.69 0.139 0.967 0.139 0.551 0 1.105 0 1.657 0.139 27.202 2.487 54.129 3.728 80.227 3.728 272.439 0 440.212-132.561 532.867-243.854 97.626-117.094 140.431-241.233 150.236-300.057v-0.139c0.139-0.69 0.274-1.243 0.274-1.934 0.551-3.175 0.831-6.213 0.831-9.39zM463.257 204.21c54.682 0 99.282 44.465 99.282 99.282 0 54.682-44.601 99.282-99.282 99.282-54.819 0-99.282-44.601-99.282-99.282 0-54.682 44.465-99.282 99.282-99.282zM113.351 675.906a35.014 35.014 0 0 1-0.414-1.795c39.078-1.657 76.499-7.595 111.709-16.57l-43.497 93.345-67.799-74.979z m183.376 275.891c-7.458 0-14.913-0.139-22.508-0.414-16.432-0.414-33.279-1.518-50.124-3.04-8.011-1.105-14.775-5.802-18.366-12.703-2.209-4.281-4.832-9.251-7.595-14.775 3.314 0 6.766 0.139 10.219 0.139 108.811 0 194.009-32.587 253.799-97.349 114.471-123.862 96.66-322.703 91.55-363.437h-0.139c-1.105-10.356-9.804-18.503-20.575-18.503-5.523 0-10.494 2.209-14.222 5.662l-0.414 0.414a1.909 1.909 0 0 0-0.414 0.551c-28.998 28.722-195.665 184.205-411.905 190.556-22.508-122.346-31.898-286.663 12.429-471.973h0.139c2.762-14.085 15.189-24.717 29.965-24.717 3.59 0 7.043 0.69 10.219 1.795 0.551 0.276 0.967 0.414 1.518 0.69l0.831 0.414c43.911 17.675 110.881 48.192 187.655 94.863-10.494 18.78-16.432 40.459-16.432 63.381 0 72.219 58.686 130.903 130.903 130.903 36.592 0 69.595-15.052 93.345-39.355 97.763 88.651 179.787 189.729 244.271 301.023 1.518 3.175 2.624 6.627 2.624 10.356 0 6.213-2.348 11.873-6.213 16.295h0.139s0 0.139-0.139 0.139c-86.994 104.666-244.411 229.082-500.555 229.082zM271.18 785.268l92.518 68.49c-34.523 16.985-74.427 27.342-119.718 30.794l27.202-99.282zM257.509 648.29c40.598-12.841 77.879-29.412 111.294-47.226l-17.812 109.362-93.482-62.139z m136.154-61.173c36.179-21.127 67.109-43.22 91.55-62.692l2.071 99.973-93.62-37.281z m100.8 115.164c-12.982 35.074-31.621 68.903-58.133 97.763-2.762 2.899-5.523 5.799-8.425 8.56l-21.266-104.669 87.822-1.657z" fill="#707070" p-id="5177"></path></svg>