<?xml version="1.0" standalone="no"?><!DOCTYPE svg PUBLIC "-//W3C//DTD SVG 1.1//EN" "http://www.w3.org/Graphics/SVG/1.1/DTD/svg11.dtd"><svg t="1533126377505" class="icon" style="" viewBox="0 0 1024 1024" version="1.1" xmlns="http://www.w3.org/2000/svg" p-id="3033" xmlns:xlink="http://www.w3.org/1999/xlink" width="200" height="200"><defs><style type="text/css"></style></defs><path d="M153.3 357c14 0 25.3-11.3 25.3-25.3V178.6h153.1c14 0 25.3-11.3 25.3-25.3S345.7 128 331.7 128h-164c-21.9 0-39.7 17.8-39.7 39.7v164c0 14 11.3 25.3 25.3 25.3zM856.3 128h-164c-14 0-25.3 11.3-25.3 25.3s11.3 25.3 25.3 25.3h153.1v153.1c0 14 11.3 25.3 25.3 25.3s25.3-11.3 25.3-25.3v-164c0-21.9-17.8-39.7-39.7-39.7zM870.7 667c-14 0-25.3 11.3-25.3 25.3v153.1H692.3c-14 0-25.3 11.3-25.3 25.3s11.3 25.3 25.3 25.3h164c21.9 0 39.7-17.8 39.7-39.7v-164c0-14-11.3-25.3-25.3-25.3zM331.7 845.4H178.6V692.3c0-14-11.3-25.3-25.3-25.3S128 678.3 128 692.3v164c0 21.9 17.8 39.7 39.7 39.7h164c14 0 25.3-11.3 25.3-25.3s-11.3-25.3-25.3-25.3zM152.9 512c0 14 11.3 25.3 25.3 25.3H848c14 0 25.3-11.3 25.3-25.3S862 486.7 848 486.7H178.2c-14 0-25.3 11.3-25.3 25.3z" p-id="3034" fill="#ffffff"></path></svg>