<?xml version="1.0" standalone="no"?><!DOCTYPE svg PUBLIC "-//W3C//DTD SVG 1.1//EN" "http://www.w3.org/Graphics/SVG/1.1/DTD/svg11.dtd"><svg t="1533535017895" class="icon" style="" viewBox="0 0 1024 1024" version="1.1" xmlns="http://www.w3.org/2000/svg" p-id="2460" xmlns:xlink="http://www.w3.org/1999/xlink" width="200" height="200"><defs><style type="text/css"></style></defs><path d="M512.000479 0C229.25976 0 0.002045 229.237748 0.002045 511.996837c0 282.780653 229.233755 511.998435 511.998435 511.998435 282.77666 0 511.994441-229.217782 511.994441-511.998435C1024.015686 229.237748 794.801099 0 512.000479 0zM512.000479 958.835697c-246.788544 0-446.823685-200.046323-446.823685-446.839659 0-246.782953 200.058303-446.821289 446.823685-446.821289 246.828477 0 446.835665 200.038336 446.835665 446.821289C958.860105 758.789374 758.829755 958.835697 512.000479 958.835697zM361.012523 328.522139l106.151364 0 0 385.677433-106.151364 0L361.012523 328.522139zM552.864482 328.522139l107.129736 0 0 385.677433L552.864482 714.199572 552.864482 328.522139z" p-id="2461"></path></svg>